<svg xmlns="http://www.w3.org/2000/svg" width="143.85" height="72.425" viewBox="0 0 143.85 72.425">
  <g id="Group_3165" data-name="Group 3165" transform="translate(-79.5 -17.016)">
    <rect id="Rectangle_432" data-name="Rectangle 432" width="142.85" height="71.425" transform="translate(80 17.516)" fill="#060606" stroke="#030404" stroke-miterlimit="10" stroke-width="1" opacity="0"/>
    <path id="Path_1785" data-name="Path 1785" d="M111.195,574.192v12.73h137.79v-12.73l-68.9-20.878Z" transform="translate(-28.393 -521.857)" fill="#1a1818"/>
    <path id="Path_1787" data-name="Path 1787" d="M183.01,709.323l-.009.032-1.472-6.317-.793.228-.016,10.116h.882l-.016-6.3.01-.017,1.456,6.314h.907l.016-11.025-1,.289Zm3.755-.618c0,.945,0,2.255-.608,2.295-.582.036-.6-1.378-.6-2.152l.009-6.932-1.13.327-.01,6.738a9.02,9.02,0,0,0,.43,3.429c.365,1.009.966,1.207,1.305,1.207.592,0,1.035-.5,1.358-1.3a9.467,9.467,0,0,0,.51-3.756l.012-7.342-1.271.368Zm1.761-4.893,1.133-.238-.013,9.8,1.44-.008.014-10.112,1.265-.263,0-2.977-3.839,1.035Zm9.48-.3a6.828,6.828,0,0,0-.916-3.843c-.472-.6-.954-.758-2.167-.41l-2.048.571-.017,13.532,1.568-.006.006-4.519h.017l1.574,4.511h2.147l-2-4.93C197.552,707.818,198,705.237,198.006,703.514Zm-2.966,2.805-.605.085,0-3.89.625-.139c.68-.157,1.144.386,1.142,1.7C196.206,704.778,196.081,706.164,195.04,706.32Zm3.5,7.034h2.044l.018-15.7-2.045.579Zm2.629-12.269,1.7-.39-.014,12.653h2.365l.013-13.2,2.043-.449,0-3.936-6.111,1.7Zm6.688,12.254h2.765l.016-18.519-2.764.781Zm9.972-20.935c-3.7,1.1-5.473,5.2-6.01,7.78a17.043,17.043,0,0,0-.319,4.048c.162,4.758,2.859,9.393,7.04,9.393,4.665,0,8.145-5.489,7.925-11.843S222.406,691.035,217.829,692.4Zm.629,16.63c-2.341.15-3.782-2.547-3.885-5.537-.093-2.73,1.039-5.956,3.432-6.514,2.669-.623,4.14,2.653,4.236,5.457C222.336,705.215,221.1,708.865,218.458,709.034Zm21.668-22.553.256,16.612-.064.078-8.489-14.344-4.188,1.184-.01,23.3h4.679l-.132-15.049.056-.044,8.443,15.069H246.4V684.707Z" transform="translate(-96.166 -649.939)" fill="#fff"/>
    <path id="Path_1788" data-name="Path 1788" d="M2874.714,676.239l-2.246,14.9-.046-.007-2.516-16.254-3.653-1.02L2863.3,690.17l-.056-.006-2.852-18-6.049-1.687,6.02,28.942,4.828.009,2.886-16.257.052.009,2.711,16.254,3.765,0,4.034-22.092Zm6.621,1.875-5.694,21.336,3.978.006.721-3.12,4.433.185.58,2.941,3.138.006-4.589-20.631Zm-.057,13.941,1.335-7.029.035.006.018,0,1.284,7.284Zm14.587-3.89a10.927,10.927,0,0,0-1.078-5,3.986,3.986,0,0,0-2.882-2.069l-3.245-.914v19.283l2.538,0v-6l.026,0,2.229,6,2.611,0-2.423-6.094C2895.348,693.007,2895.864,690.147,2895.864,688.164Zm-3.774,2.2-.893-.127v-5.169l.918.2c.944.207,1.563,1.138,1.563,2.757C2893.678,688.894,2893.515,690.56,2892.089,690.362Zm4.356,9.118,4.368.005v-3.556l-2.363-.15v-2.836l2.294.257v-3.56l-2.294-.4v-2.565l2.363.515v-3.556l-4.368-1.227Zm8.791-9.092-2.1-.37v-5.742l-1.759-.5v15.708h1.759v-6.07l2.1.239v5.835h1.529V685.3l-1.529-.431Zm4.832-4.265c-1.47-.418-2.326,1.927-2.622,3.655a17.233,17.233,0,0,0-.226,2.926c0,3.573,1.178,7.05,2.841,7.043,1.534-.007,2.555-3,2.556-6.455S2911.588,686.553,2910.068,686.123Zm.022,10.679c-.892-.051-1.447-2.021-1.447-4.105,0-1.9.512-3.832,1.431-3.629s1.345,2.415,1.345,4.072C2911.419,694.777,2910.992,696.854,2910.09,696.8Zm5.068-1.974c0,.94,0,2.249-.524,2.219s-.549-1.523-.549-2.341v-7.335l-1.123-.313v7.523a11.092,11.092,0,0,0,.447,3.84c.361,1.1.928,1.31,1.236,1.309.512,0,.878-.5,1.136-1.264a10.5,10.5,0,0,0,.392-3.527v-6.977l-1.016-.285Zm2.385-3.4c0-.525.158-.835.319-.8.278.064.307.765.327,1.137l.872.173a9.167,9.167,0,0,0-.225-2.169c-.222-.888-.594-1.39-.946-1.488-.612-.173-1.3.845-1.3,2.983a5.109,5.109,0,0,0,.917,3.37c.556.782.705.974.705,1.7,0,.5-.13,1.042-.348,1.029-.116-.005-.377-.245-.377-1.54l-.952-.089v.371c0,1.461.273,3.618,1.34,3.613.929,0,1.213-1.723,1.213-3.284a5.389,5.389,0,0,0-.8-3.189C2917.644,692.243,2917.544,692.088,2917.544,691.426Zm3.655.23v-2.273l-1.765-.491V699.51l1.765,0V697.24l-.967-.062v-1.784l.938.1v-2.275l-.938-.16v-1.617Z" transform="translate(-2702.423 -636.07)" fill="#e31e31"/>
    <g id="Group_1089" data-name="Group 1089" transform="translate(82.802 68.257)">
      <g id="Group_1087" data-name="Group 1087">
        <path id="Path_1789" data-name="Path 1789" d="M111.344,2024.368c-.106,0-.149-.053-.149-.159v-6.9c0-.106.042-.159.149-.159h1.825c1.751,0,2.292.647,2.292,1.486v.7a1.223,1.223,0,0,1-.955,1.252c.86.191,1.252.658,1.252,1.305v.945c0,.849-.541,1.528-2.3,1.528Zm.594-6.591v2.579h1.337c1.029,0,1.443-.414,1.443-1.029v-.573c0-.626-.424-.977-1.549-.977Zm0,3.173v2.791h1.518c1.136,0,1.55-.4,1.55-1.019v-.785c0-.584-.414-.987-1.55-.987Z" transform="translate(-111.195 -2017.066)" fill="#1a1818"/>
        <path id="Path_1790" data-name="Path 1790" d="M339.309,2024.209c0,.106-.032.159-.148.159h-.446c-.106,0-.149-.053-.149-.159v-6.9c0-.106.042-.159.149-.159h.446c.117,0,.148.053.148.159Z" transform="translate(-332.837 -2017.066)" fill="#1a1818"/>
        <path id="Path_1791" data-name="Path 1791" d="M422.228,2017.611c.117,0,.159.042.159.148v1.857c0,.849-.488,1.549-2.239,1.549s-2.239-.7-2.239-1.549v-4.288c0-.849.488-1.55,2.239-1.55s2.239.7,2.239,1.55v.509c0,.106-.042.149-.149.149h-.424c-.117,0-.159-.043-.159-.149v-.393c0-.615-.371-1.019-1.5-1.019s-1.5.4-1.5,1.019v4.054c0,.615.371,1.019,1.5,1.019s1.5-.392,1.5-1.008v-1.252h-1.422c-.106,0-.149-.052-.149-.159v-.34c0-.106.042-.148.149-.148Z" transform="translate(-410.181 -2013.779)" fill="#1a1818"/>
        <path id="Path_1792" data-name="Path 1792" d="M735.172,2024.368c-.106,0-.149-.053-.149-.159v-6.9c0-.106.042-.159.149-.159H737c1.751,0,2.292.647,2.292,1.486v.7a1.223,1.223,0,0,1-.955,1.252c.86.191,1.252.658,1.252,1.305v.945c0,.849-.541,1.528-2.3,1.528Zm.594-6.591v2.579H737.1c1.029,0,1.443-.414,1.443-1.029v-.573c0-.626-.424-.977-1.549-.977Zm0,3.173v2.791h1.518c1.135,0,1.55-.4,1.55-1.019v-.785c0-.584-.414-.987-1.55-.987Z" transform="translate(-719.305 -2017.066)" fill="#1a1818"/>
        <path id="Path_1793" data-name="Path 1793" d="M963.142,2021.428v2.781c0,.106-.032.159-.149.159h-.446c-.106,0-.149-.053-.149-.159v-6.9c0-.106.042-.159.138-.159h2.1c1.762,0,2.3.7,2.3,1.549v1.189a1.413,1.413,0,0,1-1.316,1.443l1.38,2.876c.042.1-.032.159-.149.159h-.446c-.117,0-.138-.064-.191-.159l-1.316-2.781h-1.762Zm0-3.629v2.993h1.5c1.136,0,1.549-.4,1.549-1.03v-.944c0-.615-.414-1.019-1.549-1.019Z" transform="translate(-940.951 -2017.066)" fill="#1a1818"/>
        <path id="Path_1794" data-name="Path 1794" d="M1182.266,2017.31l2.123,6.9q.048.159-.127.159h-.456c-.106,0-.159-.053-.191-.159l-.584-1.889H1180.6l-.573,1.889c-.032.106-.074.159-.181.159h-.424c-.106,0-.149-.053-.117-.159l2.112-6.9a.187.187,0,0,1,.2-.159h.457C1182.181,2017.151,1182.234,2017.2,1182.266,2017.31Zm-.17,1.921c-.106-.34-.244-1.167-.266-1.284a11.424,11.424,0,0,1-.265,1.263l-.785,2.5h2.091Z" transform="translate(-1152.382 -2017.066)" fill="#1a1818"/>
        <path id="Path_1795" data-name="Path 1795" d="M1424.974,2024.209c0,.106-.032.159-.149.159h-.4a.15.15,0,0,1-.149-.074l-2.812-4.988a6.56,6.56,0,0,1-.361-.69v5.593c0,.106-.042.159-.148.159h-.4c-.117,0-.159-.053-.159-.159v-6.9c0-.106.042-.159.159-.159h.4c.074,0,.106.021.127.063l2.876,5.063c.085.148.319.637.319.637v-5.6c0-.106.042-.159.149-.159h.4c.117,0,.149.053.149.159Z" transform="translate(-1387.401 -2017.066)" fill="#1a1818"/>
        <path id="Path_1796" data-name="Path 1796" d="M1655.636,2024.368c-.1,0-.127-.053-.127-.159v-6.9c0-.106.043-.159.138-.159h2.144c1.751,0,2.3.7,2.3,1.549v4.118c0,.849-.552,1.55-2.3,1.55Zm.616-6.57v5.922h1.539c1.136,0,1.55-.4,1.55-1.019v-3.885c0-.615-.414-1.019-1.55-1.019Z" transform="translate(-1616.597 -2017.066)" fill="#1a1818"/>
        <path id="Path_1797" data-name="Path 1797" d="M1885.637,2014.416c-1.115,0-1.465.393-1.465,1.008v.319a.848.848,0,0,0,.615.828l2,.753a1.482,1.482,0,0,1,1.1,1.38v.913c0,.849-.552,1.549-2.271,1.549s-2.271-.7-2.271-1.549v-.584c0-.117.042-.159.149-.159h.435c.106,0,.149.042.149.159v.488c0,.615.4,1.008,1.528,1.008s1.539-.393,1.539-1.008v-.658c0-.552-.467-.775-.88-.934l-1.9-.732a1.391,1.391,0,0,1-.923-1.273v-.594c0-.849.5-1.55,2.186-1.55s2.207.7,2.207,1.55v.5c0,.106-.042.159-.159.159h-.435c-.106,0-.149-.053-.149-.159v-.4C1887.09,2014.809,1886.74,2014.416,1885.637,2014.416Z" transform="translate(-1838.691 -2013.779)" fill="#1a1818"/>
      </g>
      <g id="Group_1088" data-name="Group 1088" transform="translate(51.115 0)">
        <path id="Path_1798" data-name="Path 1798" d="M2145.976,2020.429a10.2,10.2,0,0,1,.18,1.146,9.58,9.58,0,0,1,.19-1.135l.743-2.972c.053-.2.149-.318.372-.318h1c.223,0,.287.117.234.318l-1.656,6.58a.356.356,0,0,1-.393.318h-1.115c-.191,0-.3-.116-.35-.318l-.764-3.057a9.944,9.944,0,0,1-.148-1.072c-.011.106-.1.8-.159,1.082l-.764,3.046a.357.357,0,0,1-.393.318h-1.115c-.19,0-.3-.116-.35-.318l-1.655-6.58c-.053-.2.011-.318.234-.318h1.167c.223,0,.319.117.372.318l.722,2.972c.074.329.148.838.17.945.01-.074.084-.52.191-.945l.753-2.972c.053-.2.149-.318.372-.318h1.072c.223,0,.318.117.371.318Z" transform="translate(-2139.813 -2017.064)" fill="#1a1818"/>
        <path id="Path_1799" data-name="Path 1799" d="M2471,2017.468l1.921,6.58c.064.2-.01.318-.233.318h-1.178c-.223,0-.318-.116-.371-.318l-.276-1.019H2469.1l-.276,1.019c-.053.2-.148.318-.372.318h-1.072c-.223,0-.3-.116-.233-.318l1.921-6.58a.371.371,0,0,1,.393-.318h1.146A.371.371,0,0,1,2471,2017.468Zm-.669,3.608a21.035,21.035,0,0,1-.329-2.218c-.021.148-.191,1.6-.361,2.218l-.159.573h1Z" transform="translate(-2458.878 -2017.064)" fill="#1a1818"/>
        <path id="Path_1800" data-name="Path 1800" d="M2721.376,2021.437l1.04,2.611c.074.191-.064.318-.3.318h-1.146c-.2,0-.244-.17-.308-.318l-.934-2.346h-.8v2.346c0,.223-.074.318-.3.318h-1.146c-.223,0-.308-.095-.308-.318v-6.58c0-.223.085-.318.308-.318h2.292c2,0,2.7.9,2.7,1.815v.923A1.643,1.643,0,0,1,2721.376,2021.437Zm-2.441-2.855v1.687h.849c.521,0,.967-.2.967-.689v-.308c0-.488-.446-.69-.967-.69Z" transform="translate(-2702.636 -2017.064)" fill="#1a1818"/>
        <path id="Path_1801" data-name="Path 1801" d="M2953.623,2024.366c-.223,0-.308-.095-.308-.318v-6.58c0-.223.085-.318.308-.318h3.63c.222,0,.318.074.318.3v.828c0,.223-.1.308-.318.308h-2.187v1.38h2.017c.223,0,.318.074.318.3v.775c0,.223-.1.308-.318.308h-2.017v1.592h2.292c.222,0,.318.074.318.3v.828c0,.223-.1.307-.318.307Z" transform="translate(-2932.817 -2017.064)" fill="#1a1818"/>
        <path id="Path_1802" data-name="Path 1802" d="M3152.206,2019.993h1.921v-2.526c0-.223.085-.318.308-.318h1.146c.223,0,.3.1.3.318v6.58c0,.223-.074.318-.3.318h-1.146c-.223,0-.308-.095-.308-.318v-2.622h-1.921v2.622c0,.223-.074.318-.3.318h-1.146c-.223,0-.308-.095-.308-.318v-6.58c0-.223.085-.318.308-.318h1.146c.223,0,.3.1.3.318Z" transform="translate(-3124.99 -2017.064)" fill="#1a1818"/>
        <path id="Path_1803" data-name="Path 1803" d="M3394,2015.6c0-.913.711-1.815,2.706-1.815s2.717.9,2.717,1.815v3.757c0,.913-.721,1.815-2.717,1.815s-2.706-.9-2.706-1.815Zm3.672.308c0-.488-.446-.689-.966-.689s-.955.2-.955.689v3.141c0,.488.435.69.955.69s.966-.2.966-.69Z" transform="translate(-3362.399 -2013.78)" fill="#1a1818"/>
        <path id="Path_1804" data-name="Path 1804" d="M3637.74,2022.328c0,.488.435.69.955.69s.966-.2.966-.69v-4.861c0-.223.084-.318.307-.318h1.146c.223,0,.3.1.3.318v5.168c0,.913-.721,1.815-2.717,1.815s-2.706-.9-2.706-1.815v-5.168c0-.223.085-.318.309-.318h1.146c.223,0,.3.1.3.318Z" transform="translate(-3598.29 -2017.064)" fill="#1a1818"/>
        <path id="Path_1805" data-name="Path 1805" d="M3878.969,2015.829c0-.488-.34-.669-.828-.669s-.839.181-.839.669v.106a.484.484,0,0,0,.34.456l1.783.6a1.714,1.714,0,0,1,1.326,1.6v.753c0,.913-.647,1.815-2.642,1.815s-2.663-.9-2.663-1.815v-.711c0-.223.084-.319.307-.319h1.1c.223,0,.3.1.3.319v.477c0,.488.413.668.934.668s.945-.18.945-.668v-.212c0-.382-.51-.563-.913-.711l-1.528-.573a1.579,1.579,0,0,1-.987-1.411v-.616c0-.913.552-1.815,2.515-1.815s2.558.9,2.558,1.815v.393c0,.223-.085.319-.308.319h-1.1c-.223,0-.3-.1-.3-.319Z" transform="translate(-3831.713 -2013.78)" fill="#1a1818"/>
        <path id="Path_1806" data-name="Path 1806" d="M4110.374,2024.366c-.223,0-.309-.095-.309-.318v-6.58c0-.223.085-.318.309-.318H4114c.223,0,.318.074.318.3v.828c0,.223-.095.308-.318.308h-2.187v1.38h2.017c.223,0,.319.074.319.3v.775c0,.223-.1.308-.319.308h-2.017v1.592h2.293c.223,0,.318.074.318.3v.828c0,.223-.1.307-.318.307Z" transform="translate(-4060.421 -2017.064)" fill="#1a1818"/>
        <path id="Path_1807" data-name="Path 1807" d="M4379.659,2021.915v2.133c0,.223-.074.318-.3.318h-1.146c-.223,0-.308-.095-.308-.318v-6.58c0-.223.085-.318.308-.318h2.292c2,0,2.7.9,2.7,1.815v1.135c0,.912-.7,1.815-2.7,1.815Zm0-3.333v1.9h.85c.52,0,.966-.2.966-.69v-.52c0-.488-.447-.69-.966-.69Z" transform="translate(-4321.515 -2017.064)" fill="#1a1818"/>
        <path id="Path_1808" data-name="Path 1808" d="M4614.742,2021.437l1.04,2.611c.074.191-.063.318-.3.318h-1.146c-.2,0-.244-.17-.308-.318l-.933-2.346h-.8v2.346c0,.223-.074.318-.3.318h-1.146c-.223,0-.308-.095-.308-.318v-6.58c0-.223.085-.318.308-.318h2.293c1.995,0,2.7.9,2.7,1.815v.923A1.643,1.643,0,0,1,4614.742,2021.437Zm-2.441-2.855v1.687h.851c.519,0,.965-.2.965-.689v-.308c0-.488-.446-.69-.965-.69Z" transform="translate(-4548.294 -2017.064)" fill="#1a1818"/>
        <path id="Path_1809" data-name="Path 1809" d="M4848.433,2024.048c0,.223-.075.318-.3.318h-1.147c-.222,0-.307-.095-.307-.318v-6.58c0-.223.085-.318.307-.318h1.147c.222,0,.3.1.3.318Z" transform="translate(-4778.477 -2017.064)" fill="#1a1818"/>
        <path id="Path_1810" data-name="Path 1810" d="M4949.353,2019.352c0,.913-.616,1.815-2.611,1.815s-2.611-.9-2.611-1.815V2015.6c0-.913.616-1.815,2.611-1.815s2.611.9,2.611,1.815v.488c0,.223-.075.318-.3.318h-1.093c-.223,0-.307-.1-.307-.318v-.181c0-.488-.371-.689-.893-.689s-.88.2-.88.689v3.141c0,.488.362.69.88.69s.893-.2.893-.69v-.34c0-.223.084-.318.307-.318h1.093c.223,0,.3.1.3.318Z" transform="translate(-4873.469 -2013.78)" fill="#1a1818"/>
        <path id="Path_1811" data-name="Path 1811" d="M5175.69,2024.366c-.223,0-.308-.095-.308-.318v-6.58c0-.223.085-.318.308-.318h3.63c.223,0,.318.074.318.3v.828c0,.223-.1.308-.318.308h-2.187v1.38h2.017c.223,0,.318.074.318.3v.775c0,.223-.1.308-.318.308h-2.017v1.592h2.293c.222,0,.318.074.318.3v.828c0,.223-.1.307-.318.307Z" transform="translate(-5098.895 -2017.064)" fill="#1a1818"/>
        <path id="Path_1812" data-name="Path 1812" d="M5371.492,2015.829c0-.488-.341-.669-.828-.669s-.839.181-.839.669v.106a.484.484,0,0,0,.339.456l1.784.6a1.715,1.715,0,0,1,1.326,1.6v.753c0,.913-.647,1.815-2.642,1.815s-2.665-.9-2.665-1.815v-.711c0-.223.085-.319.309-.319h1.1c.222,0,.3.1.3.319v.477c0,.488.413.668.934.668s.945-.18.945-.668v-.212c0-.382-.509-.563-.913-.711l-1.528-.573a1.581,1.581,0,0,1-.987-1.411v-.616c0-.913.552-1.815,2.515-1.815s2.558.9,2.558,1.815v.393c0,.223-.085.319-.309.319h-1.1c-.224,0-.3-.1-.3-.319Z" transform="translate(-5286.626 -2013.78)" fill="#1a1818"/>
      </g>
    </g>
  </g>
</svg>
