<?xml version="1.0" encoding="UTF-8"?>
<svg width="725px" height="486px" viewBox="0 0 725 486" version="1.1" xmlns="http://www.w3.org/2000/svg" xmlns:xlink="http://www.w3.org/1999/xlink">
    <title>ICONS-RIGHT</title>
    <g id="ICONS-RIGHT" stroke="none" stroke-width="1" fill="none" fill-rule="evenodd">
        <g id="Right" transform="translate(495.580100, 310.013966) rotate(-15.000000) translate(-495.580100, -310.013966) translate(270.893476, 75.715412)">
            <g id="Drink" transform="translate(-0.000000, 258.249473)" fill="#D80012">
                <path d="M17.8150709,69.1398555 C8.86408404,69.1398555 4.17133367,66.9672859 3.82372253,66.1851609 L3.82372253,24.631146 C6.69151443,25.1206983 12.1084547,25.8506817 18.7130663,25.8506817 C23.2030435,25.8506817 27.606118,25.497277 31.8353868,24.7962612 L31.8353868,66.1011548 C31.4877757,66.9672859 26.7950253,69.1398555 17.8150709,69.1398555 Z M5.82248658,20.0600595 L5.82248658,20.0571627 C6.02525974,19.7703835 6.17009772,19.45174 6.2570005,19.1157159 C10.0227878,19.9760535 15.5266309,20.07744 17.9019737,20.07744 C20.3642192,20.07744 26.0129002,19.9702599 29.74972,19.078058 C29.8076552,19.4343594 29.9235255,19.7848673 30.0973311,20.0977174 L30.676683,21.1057897 C19.7558997,22.8322583 9.76207949,21.7025221 5.18519949,20.9725387 L5.82248658,20.0600595 Z M19.1186126,16.4622842 L28.1275347,16.4622842 L28.1275347,14.5793905 L19.1186126,14.5793905 L19.1186126,16.4622842 Z M35.108725,21.149241 L33.5444749,18.3220038 L33.5155073,16.9865977 C33.7182805,16.6418833 33.8341509,16.2826851 33.8341509,15.9118999 C33.8341509,14.8835503 33.8341509,11.7463597 17.9019737,11.7463597 C1.99876405,11.7463597 1.99876405,14.8835503 1.99876405,15.9118999 C1.99876405,16.2971689 2.11463443,16.8301726 2.54914835,17.3631764 L2.52018076,18.1047468 L0.724189873,20.6307211 C0.260708354,21.3201499 0,22.1312425 0,22.9741995 L0,66.1851609 C0,67.6625082 0.926963037,69.7221042 5.27210227,71.2284191 C6.45977367,73.0359971 9.64620911,75 17.8730061,75 C26.4184466,75 29.4890116,73.02441 30.531845,71.1762775 C34.7611139,69.6728593 35.6591093,67.6422309 35.6591093,66.1851609 L35.6591093,23.1682824 C35.6591093,22.4585763 35.4853038,21.7633541 35.108725,21.149241 L35.108725,21.149241 Z" id="Fill-180"></path>
                <polygon id="Fill-181" points="25.8101271 50.2384999 29.6338496 50.2384999 29.6338496 28.2463018 25.8101271 28.2463018"></polygon>
                <path d="M22.8554324,8.96836739 C22.8554324,10.0112008 23.6954926,10.8541578 24.7383261,10.8541578 C25.7811595,10.8541578 26.6212197,10.0112008 26.6212197,8.96836739 C26.6212197,7.92843073 25.7811595,7.08547372 24.7383261,7.08547372 C23.6954926,7.08547372 22.8554324,7.92843073 22.8554324,8.96836739" id="Fill-182"></path>
                <path d="M22.3919509,5.40245645 C23.3478815,5.40245645 24.1589742,4.60874435 24.1589742,3.62963964 C24.1589742,2.65343169 23.3478815,1.85971959 22.3919509,1.85971959 C21.4070526,1.85971959 20.59596,2.65343169 20.59596,3.62963964 C20.59596,4.60874435 21.4070526,5.40245645 22.3919509,5.40245645" id="Fill-183"></path>
                <path d="M28.388243,5.33293422 C29.8655904,5.33293422 31.0822293,4.13946931 31.0822293,2.66791549 C31.0822293,1.19346491 29.8655904,0 28.388243,0 C26.9398633,0 25.7232243,1.19346491 25.7232243,2.66791549 C25.7232243,4.13946931 26.9398633,5.33293422 28.388243,5.33293422" id="Fill-184"></path>
                <path d="M26.3025762,71.7150747 C27.9826967,71.0835812 28.5041134,70.3535978 28.677919,70.0175737 C27.8668263,70.2493144 26.9688309,70.4549844 26.0129002,70.6287899 L26.3025762,71.7150747" id="Fill-178"></path>
                <path d="M9.82001468,71.796184 L10.080723,70.7098992 C9.00892202,70.5274033 8.02402379,70.3072496 7.09706075,70.0581283 C7.4157043,70.495539 8.13989417,71.2052451 9.82001468,71.796184" id="Fill-179"></path>
            </g>
            <g id="Drink" transform="translate(388.265017, 393.343056)" fill="#D80012">
                <path d="M17.8150709,69.1398555 C8.86408404,69.1398555 4.17133367,66.9672859 3.82372253,66.1851609 L3.82372253,24.631146 C6.69151443,25.1206983 12.1084547,25.8506817 18.7130663,25.8506817 C23.2030435,25.8506817 27.606118,25.497277 31.8353868,24.7962612 L31.8353868,66.1011548 C31.4877757,66.9672859 26.7950253,69.1398555 17.8150709,69.1398555 Z M5.82248658,20.0600595 L5.82248658,20.0571627 C6.02525974,19.7703835 6.17009772,19.45174 6.2570005,19.1157159 C10.0227878,19.9760535 15.5266309,20.07744 17.9019737,20.07744 C20.3642192,20.07744 26.0129002,19.9702599 29.74972,19.078058 C29.8076552,19.4343594 29.9235255,19.7848673 30.0973311,20.0977174 L30.676683,21.1057897 C19.7558997,22.8322583 9.76207949,21.7025221 5.18519949,20.9725387 L5.82248658,20.0600595 Z M19.1186126,16.4622842 L28.1275347,16.4622842 L28.1275347,14.5793905 L19.1186126,14.5793905 L19.1186126,16.4622842 Z M35.108725,21.149241 L33.5444749,18.3220038 L33.5155073,16.9865977 C33.7182805,16.6418833 33.8341509,16.2826851 33.8341509,15.9118999 C33.8341509,14.8835503 33.8341509,11.7463597 17.9019737,11.7463597 C1.99876405,11.7463597 1.99876405,14.8835503 1.99876405,15.9118999 C1.99876405,16.2971689 2.11463443,16.8301726 2.54914835,17.3631764 L2.52018076,18.1047468 L0.724189873,20.6307211 C0.260708354,21.3201499 0,22.1312425 0,22.9741995 L0,66.1851609 C0,67.6625082 0.926963037,69.7221042 5.27210227,71.2284191 C6.45977367,73.0359971 9.64620911,75 17.8730061,75 C26.4184466,75 29.4890116,73.02441 30.531845,71.1762775 C34.7611139,69.6728593 35.6591093,67.6422309 35.6591093,66.1851609 L35.6591093,23.1682824 C35.6591093,22.4585763 35.4853038,21.7633541 35.108725,21.149241 L35.108725,21.149241 Z" id="Fill-180"></path>
                <path d="M22.8554324,8.96836739 C22.8554324,10.0112008 23.6954926,10.8541578 24.7383261,10.8541578 C25.7811595,10.8541578 26.6212197,10.0112008 26.6212197,8.96836739 C26.6212197,7.92843073 25.7811595,7.08547372 24.7383261,7.08547372 C23.6954926,7.08547372 22.8554324,7.92843073 22.8554324,8.96836739" id="Fill-182"></path>
                <path d="M22.3919509,5.40245645 C23.3478815,5.40245645 24.1589742,4.60874435 24.1589742,3.62963964 C24.1589742,2.65343169 23.3478815,1.85971959 22.3919509,1.85971959 C21.4070526,1.85971959 20.59596,2.65343169 20.59596,3.62963964 C20.59596,4.60874435 21.4070526,5.40245645 22.3919509,5.40245645" id="Fill-183"></path>
                <path d="M28.388243,5.33293422 C29.8655904,5.33293422 31.0822293,4.13946931 31.0822293,2.66791549 C31.0822293,1.19346491 29.8655904,0 28.388243,0 C26.9398633,0 25.7232243,1.19346491 25.7232243,2.66791549 C25.7232243,4.13946931 26.9398633,5.33293422 28.388243,5.33293422" id="Fill-184"></path>
                <path d="M9.82001468,71.796184 L10.080723,70.7098992 C9.00892202,70.5274033 8.02402379,70.3072496 7.09706075,70.0581283 C7.4157043,70.495539 8.13989417,71.2052451 9.82001468,71.796184" id="Fill-179"></path>
            </g>
            <g id="Healthy-message" transform="translate(105.000000, 265.249473)" fill="#D80012">
                <path d="M10.9654731,4.79539642 C7.54475703,4.79539642 4.79539642,7.57352941 4.79539642,10.9878517 L4.79539642,53.8523018 C4.79539642,57.2634271 7.54475703,60.0383632 10.9654731,60.0383632 L27.6214834,60.0383632 L35.8056266,68.2193095 L43.9897698,60.0383632 L60.6457801,60.0383632 C64.0664962,60.0383632 66.8478261,57.2634271 66.8478261,53.8523018 L66.8478261,10.9878517 C66.8478261,7.57352941 64.0664962,4.79539642 60.6457801,4.79539642 L10.9654731,4.79539642 Z M35.8056266,75 L25.6393862,64.8337596 L10.9654731,64.8337596 C4.92327366,64.8337596 0,59.907289 0,53.8523018 L0,10.9878517 C0,4.92966752 4.92327366,0 10.9654731,0 L60.6457801,0 C66.6879795,0 71.6432225,4.92966752 71.6432225,10.9878517 L71.6432225,53.8523018 C71.6432225,59.907289 66.6879795,64.8337596 60.6457801,64.8337596 L45.971867,64.8337596 L35.8056266,75 L35.8056266,75 Z" id="Fill-169"></path>
                <path d="M35.8056266,20.8695652 C35.4859335,20.1502558 32.4488491,14.6483376 25.1598465,14.6483376 C17.3913043,14.6483376 13.1393862,23.4814578 14.8976982,28.9737852 C17.9347826,38.6029412 35.8056266,54.1815857 35.8056266,54.1815857 C35.8056266,54.1815857 53.6764706,38.6029412 56.7455243,28.9737852 C58.471867,23.4814578 54.2199488,14.6483376 46.483376,14.6483376 C39.1624041,14.6483376 36.1253197,20.1502558 35.8056266,20.8695652 Z" id="Fill-170"></path>
            </g>
            <g id="Shield" transform="translate(246.000000, 265.249473)" fill="#D80012">
                <path d="M50.2755455,57.9109966 L42.3152711,57.9109966 C42.3152711,55.9493575 45.2719444,53.760282 49.5079476,53.760282 C53.7439508,53.760282 56.7006242,55.9493575 56.7006242,57.9109966 L50.2755455,57.9109966 Z M34.016685,70.3176529 C4.00929328,56.2279671 3.9382194,24.5148023 4.27937402,17.7684697 L34.016685,4.6596035 L63.7397811,17.7627838 C63.9132014,22.0670179 63.8250698,37.0181191 55.6657885,50.8007657 C53.8946274,49.9819946 51.7993695,49.4958493 49.5079476,49.4958493 C43.082869,49.4958493 38.0508383,53.191691 38.0508383,57.9109966 C38.0508383,58.2521512 38.0792679,58.5933058 38.136127,58.9344604 L38.136127,68.1399492 C36.8255247,68.9018612 35.4665921,69.6353436 34.016685,70.3176529 Z M62.3865345,57.9109966 L60.9650569,57.9109966 C60.9650569,56.1938516 60.2855906,54.6188545 59.1256649,53.2997233 C69.6303842,35.7643759 67.9416688,16.4123801 67.9132393,16.1280846 L67.7909922,14.8857132 L34.016685,0 L0.239534738,14.8857132 L0.117287666,16.1280846 C0.0774862937,16.545999 -3.57286813,58.1071605 33.1410548,74.6105151 L34.016685,75 L34.8894722,74.6105151 C36.0721415,74.0788825 37.2093236,73.5188204 38.3095472,72.9388575 C38.6762885,74.1186839 39.7423966,74.997157 41.0359412,74.997157 L59.4867202,74.997157 C61.0787751,74.997157 62.3865345,73.6893977 62.3865345,72.0973428 L62.3865345,64.1939274 L72.0810116,64.1939274 L72.0810116,57.9109966 L62.3865345,57.9109966 L62.3865345,57.9109966 Z" id="Fill-121"></path>
                <polygon id="Fill-122" points="49.3032548 40.6229862 49.3032548 31.3521095 38.6507019 31.3521095 38.6507019 20.6995565 29.3798251 20.6995565 29.3798251 31.3521095 18.7301151 31.3521095 18.7301151 40.6229862 29.3798251 40.6229862 29.3798251 51.2755392 38.6507019 51.2755392 38.6507019 40.6229862"></polygon>
            </g>
            <path d="M394,278.249473 L394.056906,276.94951 L395.757767,269.249473 C399.017224,269.305993 404.58138,269.724907 410.0665,271.656566 C417.144991,274.130153 421.153712,276.643636 423,278.249473 L394,278.249473 Z M418.939554,335.249473 L398.369601,335.249473 C398.289922,335.249473 398.238927,335.185684 398.232553,335.109137 L394,288.249473 L423,288.249473 L419.073415,335.1506 C419.073415,335.176115 419.016046,335.249473 418.939554,335.249473 Z M409.99373,265.398947 C411.360502,264.603592 414.018809,264.205915 417,264.253258 L416.416928,269.249473 C414.971787,268.656113 413.445141,268.075378 411.799373,267.526205 C410.862069,267.210588 409.9279,266.942314 409,266.699289 C409.009404,266.178521 409.357367,265.752438 409.99373,265.398947 Z M432,262.424857 C432,261.230908 424.45038,258.599798 416.640643,259.986421 C411.89275,260.823449 407.903266,262.999721 405.267637,260.918207 C404.368201,260.201206 403.58472,258.956719 401.732572,258.454503 C400.140539,258.021775 398.771015,258.391331 398.385542,258.501882 C394.530817,259.610549 393.296051,264.389502 393.195766,264.803278 C392.409151,264.828547 391.929661,264.86645 391.929661,264.86645 L389.315969,276.183695 L389.234487,278.066218 L387,278.066218 L387,288.966528 L389.67637,288.966528 L393.875827,335.799013 C394.088934,338.310096 396.17926,340.249473 398.692667,340.249473 L418.919006,340.249473 C421.435546,340.249473 423.54781,338.287986 423.738979,335.773744 L427.628177,288.966528 L430.257539,288.966528 L430.257539,278.066218 L427.784874,278.066218 C427.684588,277.102846 427.571767,276.354259 427.443276,276.183695 C427.289714,275.987862 427.079741,275.782554 426.894839,275.583562 L426.324465,272.33021 L425.086566,265.245482 C430.060102,265.949848 432,263.874652 432,262.424857 L432,262.424857 Z" id="Fill-54" fill="#D80012"></path>
            <g id="creatine-supps" transform="translate(247.470532, 396.924031)" fill="#D80012" fill-rule="nonzero">
                <path d="M40.4093271,71.673077 L13.7074884,71.673077 C6.14103476,71.6633989 0.00960756462,65.4869337 0,57.8649012 L0,21.5374259 C0.00960756462,13.9153934 6.14103476,7.7389282 13.7074884,7.72925007 L40.4093271,7.72925007 C47.9770051,7.73739921 54.1103704,13.9141625 54.1204867,21.5374259 L54.1204867,46.3579339 L49.5406161,46.3579339 L49.5406161,21.5374259 C49.5345445,16.4602953 45.4494375,12.3464222 40.4093271,12.3418372 L13.7074884,12.3418372 C8.66845327,12.3479505 4.58502147,16.4613769 4.57895277,21.5374259 L4.57895277,57.8649012 C4.5860302,62.9405285 8.66887187,67.0533604 13.7074884,67.0604898 L40.4093271,67.0604898 C45.4488096,67.0543799 49.533031,62.9413988 49.5406161,57.8649012 L54.1204867,57.8649012 C54.1103704,65.4881646 47.9770051,71.6649279 40.4093271,71.673077 L40.4093271,71.673077 Z" id="Path_2416"></path>
                <rect id="Rectangle_890" x="1.69244115" y="26.6705355" width="28.8430888" height="24.0281675"></rect>
                <rect id="Rectangle_891" x="7.62699891" y="0" width="38.8646533" height="7.87255554" rx="1.022"></rect>
            </g>
            <g id="Bag" transform="translate(374.248886, 125.733477)" fill="#D80012">
                <path d="M44.4186047,39.0988372 C45.494186,38.6918605 46.9186047,38.4883721 48.7209302,38.4883721 C50.1453488,38.4883721 51.3662791,38.6337209 52.3837209,38.8953488 L55.0581395,36.8313953 L57.5,39.1860465 L55.5813953,41.5697674 C55.9302326,42.4127907 56.1046512,43.4593023 56.1046512,44.7674419 C56.1046512,46.8604651 55.6395349,48.4011628 54.6802326,49.3604651 C53.7209302,50.3197674 52.1511628,50.872093 49.9709302,50.9883721 L49.8255814,52.6453488 C51.627907,52.877907 52.9651163,53.1395349 53.8662791,53.4593023 C54.7674419,53.75 55.4069767,54.1860465 55.755814,54.7093023 C56.1337209,55.2325581 56.3081395,55.9883721 56.3081395,56.9767442 C56.3081395,58.6627907 55.7267442,59.8837209 54.622093,60.6104651 C53.4883721,61.3372093 51.627907,61.7151163 49.0406977,61.7151163 C46.2790698,61.7151163 43.8372093,61.3372093 41.6569767,60.6395349 L42.2674419,57.0348837 C44.3895349,57.5872093 46.3372093,57.877907 48.0523256,57.877907 C49.4186047,57.877907 50.6395349,57.7906977 51.7732558,57.5872093 L51.7732558,55.6976744 C49.5348837,55.5523256 47.9651163,55.3488372 47.005814,55.1162791 C46.0755814,54.8837209 45.5813953,54.5639535 45.5813953,54.1569767 L46.5697674,50.9302326 C44.7093023,50.6976744 43.372093,50.1162791 42.5872093,49.127907 C41.744186,48.1686047 41.3372093,46.7151163 41.3372093,44.7674419 C41.3372093,43.255814 41.5988372,42.0348837 42.0930233,41.1046512 C42.5581395,40.2034884 43.3430233,39.5348837 44.4186047,39.0988372 Z M46.627907,41.6860465 C46.3662791,41.8895349 46.2209302,42.3255814 46.2209302,42.9360465 L46.2209302,48.2267442 L49.4186047,48.2267442 C50.0872093,48.2267442 50.5813953,48.1104651 50.8430233,47.8488372 C51.1046512,47.6162791 51.25,47.2093023 51.25,46.627907 L51.25,41.3372093 L48.0232558,41.3372093 C47.3546512,41.3372093 46.8895349,41.4534884 46.627907,41.6860465 L46.627907,41.6860465 Z" id="Fill-166"></path>
                <polyline id="Fill-167" points="35.5813953 46.9767442 39.8837209 55.9593023 34.6511628 55.9593023 31.4244186 48.4883721 29.4767442 48.4883721 29.4767442 55.9593023 24.4186047 55.9593023 24.4186047 33.8953488 29.4767442 33.4011628 29.4767442 45.2906977 31.3953488 45.2906977 34.3895349 38.9825581 39.7383721 38.9825581 35.5813953 46.9767442"></polyline>
                <path d="M5.34883721,16.2790698 L5.34883721,0 L65.5523256,0 L65.5523256,15.6395349 L70.377907,75 L0,75 L5.34883721,16.2790698 Z M4.76744186,70.6395349 L10.9883721,70.6395349 L7.70348837,38.4302326 L4.76744186,70.6395349 Z M61.3372093,17.6453488 L24.9709302,17.6453488 L24.9709302,13.2848837 L61.1918605,13.2848837 L61.1918605,4.36046512 L9.70930233,4.36046512 L9.70930233,15.0581395 L15.377907,70.6395349 L65.6686047,70.6395349 L61.3372093,17.6453488 L61.3372093,17.6453488 Z" id="Fill-168"></path>
                <polyline id="Fill-165" points="7.70348837 38.4302326 10.9883721 70.6395349 4.76744186 70.6395349 7.70348837 38.4302326"></polyline>
            </g>
            <g id="icon-vitamins" transform="translate(374.382694, 0.000000)" fill="#D80012" fill-rule="nonzero">
                <path d="M68.2419961,6.76003485 C63.9252245,2.41728004 58.0498535,-0.0170311392 51.9266403,8.97023143e-05 C45.8034485,-0.0169231263 39.9281175,2.41737149 35.6112846,6.76003485 L6.74840845,35.6200089 C-2.24946948,44.6356699 -2.24946948,59.2340921 6.74840845,68.2497531 C11.0723209,72.5806719 16.9438804,75.0099226 23.0637642,74.9999671 C29.1834399,75.0103073 35.0548406,72.5809783 39.3781526,68.2497531 L68.2419961,39.3868769 C77.2400731,30.3724311 77.2400731,15.7744806 68.2419961,6.76003485 L68.2419961,6.76003485 Z M16.0282144,44.8998149 C12.148346,48.788958 12.148346,55.0846734 16.0282144,58.9738165 L12.5138253,62.4882056 C6.69223811,56.6573061 6.69223811,47.2134233 12.5138253,41.3825237 L20.2719868,33.6243621 L23.7902454,37.1416533 L16.0282144,44.8998149 Z M64.7276069,35.8724878 L50.2966525,50.3044095 L24.6985888,24.7063457 L39.1266411,10.274424 C42.514939,6.86948908 47.1240687,4.96077371 51.9276077,4.97327442 C56.7311467,4.96077371 61.3402763,6.86948908 64.7285743,10.274424 C68.1343312,13.6621712 70.0431953,18.2716599 70.0297337,23.0753906 C70.0410973,27.8785225 68.1304967,32.4866054 64.7237375,35.8724878 L64.7276069,35.8724878 Z" id="Path_2403"></path>
            </g>
            <g id="Weights" transform="translate(233.142886, 135.490425)" fill="#D80012">
                <path d="M14.1723635,70.9498812 L12.9509153,72.1743357 C11.8474,73.2752214 10.0643663,73.2752214 8.96085102,72.1743357 L2.82553054,66.0380212 C1.72482315,64.9371355 1.72482315,63.1510045 2.82553054,62.0501188 L4.04978671,60.8256643 C5.15049409,59.7247786 6.93633566,59.7247786 8.03704304,60.8256643 L14.1723635,66.9619788 C15.2758788,68.0628645 15.2758788,69.8489955 14.1723635,70.9498812" id="Fill-19"></path>
                <path d="M72.2439619,13.6878178 L70.6850636,15.2439619 C69.6770127,16.2520127 68.04375,16.2520127 67.0356992,15.2439619 L60.7560381,8.96430085 C59.7479873,7.95625 59.7479873,6.32298729 60.7560381,5.31493644 L62.3149364,3.75603814 C63.3229873,2.74798729 64.95625,2.74798729 65.9643008,3.75603814 L72.2439619,10.0356992 C73.2520127,11.04375 73.2520127,12.6797669 72.2439619,13.6878178" id="Fill-20"></path>
                <path d="M50.1701665,35.2732727 L34.2715424,51.1702524 C33.1650978,52.2765825 31.3721941,52.2765825 30.2657495,51.1702524 L23.8298335,44.7321059 C22.7233888,43.6257758 22.7233888,41.8330575 23.8298335,40.7267273 L39.7284576,24.8297476 C40.8349022,23.7234175 42.6278059,23.7234175 43.7342505,24.8297476 L50.1701665,31.2678941 C51.2766112,32.3742242 51.2766112,34.1669425 50.1701665,35.2732727" id="Fill-21"></path>
                <path d="M36.4419482,13.8995207 L62.0743593,39.5481788 L67.5580518,34.0626442 L41.9256407,8.41398604 L36.4419482,13.8995207 Z M62.0743593,44 C61.0329712,44 60.0629111,43.5945102 59.3296599,42.8606308 L33.1323314,16.6408602 C31.6230321,15.1302679 31.6230321,12.6687735 33.1294783,11.1581811 L39.1866476,5.09867853 C40.6474439,3.63663078 43.2009844,3.63091965 44.6703401,5.09867853 L70.8676686,31.318449 C72.3769679,32.8318969 72.3769679,35.2933914 70.8705217,36.8039837 L70.8676686,36.8039837 L64.8133524,42.8634863 C64.0829543,43.5945102 63.1100411,44 62.0743593,44 L62.0743593,44 Z" id="Fill-22"></path>
                <path d="M49.5796255,10.049367 L64.9480316,25.4231739 L70.4182388,19.94921 L55.0498327,4.57540323 L49.5796255,10.049367 Z M64.9480316,30 C64.0453478,30 63.1426639,29.6553852 62.4563964,28.9718517 L46.031537,12.5442642 C44.6561543,11.165805 44.6561543,8.930081 46.031537,7.55731796 L52.5581975,1.02957339 C53.9335801,-0.346037708 56.1717805,-0.340341596 57.5443155,1.02957339 L73.9663273,17.457161 C74.6326618,18.120758 75,19.0093515 75,19.9520581 C75,20.8947647 74.6326618,21.7805101 73.9634797,22.4469552 L67.4425144,28.9718517 C66.7533993,29.6582333 65.8507155,30 64.9480316,30 L64.9480316,30 Z" id="Fill-23"></path>
                <path d="M7.4503878,41.8994226 L33.0714986,67.5534536 L38.5546046,62.0645248 L12.930641,36.4133496 L7.4503878,41.8994226 Z M33.0714986,72 C32.0815726,72 31.0887938,71.6230288 30.3327984,70.8690865 L4.13827227,44.6410311 C3.4050994,43.9127914 3,42.9389492 3,41.8994226 C3,40.859896 3.4050994,39.8860538 4.14112508,39.1549582 L10.189088,33.0977167 C11.6468753,31.6383813 14.2058483,31.6298138 15.672194,33.0977167 L41.8638673,59.3200604 C43.3787109,60.8336568 43.3787109,63.2953928 41.8638673,64.8089892 L35.8130516,70.8662306 C35.0570563,71.6230288 34.0642774,72 33.0714986,72 L33.0714986,72 Z" id="Fill-24"></path>
                <path d="M4.57803304,55.051963 L19.9511107,70.418728 L25.421967,64.9462577 L10.0488893,49.5794927 L4.57803304,55.051963 Z M19.9511107,75 C19.0483197,75 18.1455288,74.6554792 17.4591798,73.9664377 L1.02952345,57.5433322 C-0.343174483,56.1680964 -0.343174483,53.9301351 1.02952345,52.5577466 L7.55695842,46.031783 C8.92965635,44.6565472 11.1595785,44.6565472 12.5408202,46.0289357 L28.9704766,62.4548885 C30.3431745,63.8301243 30.3431745,66.0680856 28.9704766,67.4404741 L22.4430416,73.9664377 C21.7566926,74.6554792 20.8539017,75 19.9511107,75 L19.9511107,75 Z" id="Fill-25"></path>
            </g>
            <g id="phone-sups" transform="translate(220.483885, 0.465045)" fill="#D80012">
                <path d="M45.2579797,65.9160582 C45.0071576,65.5941698 44.8399428,65.2262973 44.5891207,64.8876874 C44.4637096,64.9587537 44.2964948,65.0465414 44.1292801,65.0799844 L18.5036182,70.5144641 C18.0019739,70.6231537 17.4585259,70.5270052 16.9986853,70.2343794 C16.5806484,69.9459339 16.2462189,69.5028148 16.1626115,68.9886294 L4.49938207,13.9457109 C4.373971,13.4357059 4.45757838,12.9089794 4.75020421,12.46168 C5.04283004,12.0185608 5.50267063,11.7133939 6.00431491,11.6047043 L31.6717805,6.17022463 C31.7971916,6.14096204 31.9226026,6.12842094 32.0898174,6.12842094 C32.4660506,6.12842094 32.8004801,6.23711053 33.1349096,6.45030935 C33.5947502,6.73875481 33.8873761,7.18187392 34.0127871,7.69605931 L42.4571325,47.5558776 L43.9620653,33.3551641 L38.3603709,6.77637813 C37.9841377,5.10005016 37.0226528,3.66200323 35.5595236,2.72560058 C34.1381982,1.7933783 32.4242469,1.46312915 30.7520993,1.82682125 L5.08463373,7.26130093 C3.41248614,7.61245193 1.99116068,8.60319938 1.02967581,10.0412463 C0.109994637,11.4834736 -0.224434882,13.1932445 0.151798327,14.8653921 L11.8150278,69.9083106 C12.1494573,71.5846385 13.1527459,73.0226855 14.5740713,73.9590881 C15.6609673,74.6446686 16.8314706,75 18.0855813,75 C18.5036182,75 18.9634588,74.9540159 19.4232994,74.8578675 L45.0489613,69.4233878 C46.0104461,69.2269104 46.8465199,68.8172343 47.5989863,68.2570648 C46.7211088,67.5631236 45.9686424,66.7855749 45.2579797,65.9160582" id="Fill-129"></path>
                <polyline id="Fill-130" points="8.13630309 19.112647 17.040489 61.1629787 41.1612181 56.0503874 32.2570321 14.0042361 8.13630309 19.112647"></polyline>
                <path d="M29.8324181,60.7407614 C28.2856816,61.0626498 27.3241967,62.5550415 27.6586263,64.0725155 C27.9930558,65.5941698 29.4561849,66.5640154 31.0029215,66.242127 C32.5078543,65.9202386 33.4693392,64.4278468 33.1349096,62.9103729 C32.8422838,61.3887186 31.337351,60.418873 29.8324181,60.7407614" id="Fill-131"></path>
                <polyline id="Fill-132" points="25.3594233 13.7743158 24.4397421 9.43091244 15.0339119 11.4207681 15.9535931 15.7641715 25.3594233 13.7743158"></polyline>
                <path d="M96.2166777,24.6683574 L92.4961493,59.444847 C91.994505,63.9805473 88.1485655,67.3541051 83.6755707,67.3541051 C83.3829449,67.3541051 83.0485153,67.3373836 82.7140858,67.2997603 L56.9630129,64.5281757 C52.1137848,64.0056296 48.6022749,59.6287832 49.1039192,54.7753748 L49.8563856,47.9153893 L74.8967958,50.6117273 L77.3632135,27.6071568 L52.3228033,24.9108188 L52.8662513,19.9947049 C53.3678955,15.4631849 57.213835,12.0896271 61.6450261,12.0896271 C61.9794556,12.0896271 62.3138852,12.1063486 62.606511,12.1397915 L88.357584,14.9155565 C93.206812,15.4381027 96.7601256,19.8107686 96.2166777,24.6683574 Z M90.1969463,10.7811716 L91.7018791,10.944206 C91.7854865,10.9525667 91.9108976,10.9609275 91.994505,10.9609275 C93.5412415,10.9609275 94.8371559,9.81132601 95.0043706,8.25622875 L95.1715854,6.73875481 C95.3806039,5.07914832 94.1682969,3.58675659 92.4961493,3.40700072 L61.0179708,0.0167214759 C60.9343634,0.00418036899 60.8089523,0 60.725345,0 C59.1786084,0 57.882694,1.14960147 57.7154793,2.70051837 L57.5482645,4.21799231 C57.3392461,5.88177917 58.5515531,7.37417089 60.2237007,7.55392676 L61.7286335,7.71278078 C61.6868298,7.71278078 61.6868298,7.71278078 61.6868298,7.71278078 C54.9564357,7.71278078 49.1875265,12.7125021 48.4350601,19.5181428 L44.7145317,54.2988128 C43.9202616,61.5851959 49.2293302,68.156736 56.5031723,68.9426453 L82.2542452,71.7184103 C82.7140858,71.7685748 83.2157301,71.793657 83.6755707,71.793657 C90.1133389,71.793657 95.6732297,67.0907419 96.7183219,60.6738755 L96.8019293,60.6822362 L100.647869,25.1407391 C101.358532,18.3183769 96.7601256,12.189956 90.1969463,10.7811716 L90.1969463,10.7811716 Z" id="Fill-133"></path>
            </g>
        </g>
        <path d="M257.402199,295.146874 L257.098582,293.881583 L256.611137,286.011012 C259.759907,285.166914 265.223985,284.035911 271.029058,284.380837 C278.515153,284.807505 283.061393,286.118667 285.278788,287.15339 L257.402199,295.146874 Z M297.086966,343.064518 L277.313858,348.734365 C277.237266,348.756328 277.170664,348.709065 277.143437,348.63724 L260.158572,304.759491 L288.035161,296.766007 L297.188388,342.932577 C297.195421,342.957105 297.160494,343.043434 297.086966,343.064518 Z M269.234274,278.385685 C270.328869,277.244408 272.774583,276.129408 275.653338,275.353189 L276.469996,280.316576 C274.917286,280.144536 273.289707,280.007099 271.556321,279.932834 C270.56833,279.8878 269.596403,279.88741 268.637462,279.909563 C268.502959,279.406377 268.719997,278.900888 269.234274,278.385685 Z M274.131803,271.350694 C269.798551,273.463994 266.563474,276.655611 263.456202,275.38121 C262.393976,274.939902 261.29782,273.959582 259.378991,273.987341 C257.729354,274.010201 256.514746,274.742932 256.174678,274.955451 C252.774869,277.083676 252.905194,282.017849 252.922845,282.443239 C252.173668,282.684349 251.7232,282.852949 251.7232,282.852949 L252.330214,294.452214 L252.770782,296.284271 L250.622855,296.900179 L253.627387,307.37823 L256.20008,306.640522 L273.145639,350.501269 C274.042638,352.856336 276.586554,354.144413 279.002595,353.451625 L298.4454,347.87649 C300.864454,347.182837 302.354233,344.715116 301.844978,342.245579 L292.681698,296.179586 L295.209203,295.454836 L292.20467,284.976785 L289.827791,285.658344 C289.46585,284.759935 289.15106,284.071444 288.980533,283.942904 C288.778941,283.796985 288.520511,283.657506 288.287923,283.517189 L286.842899,280.547082 L283.700138,274.078016 C288.675157,273.384204 289.967905,270.854689 289.568288,269.461056 C289.239191,268.313359 281.256798,267.865132 274.131803,271.350694 Z" id="Fill-54" fill="#D80012"></path>
        <g id="protein-bars" transform="translate(129.094343, 311.390391)" fill="#D80012" fill-rule="nonzero">
            <polygon id="Rectangle_894" transform="translate(37.297735, 37.696601) rotate(-45.000000) translate(-37.297735, -37.696601) " points="23.9841397 10.5429863 50.6113299 10.5429863 50.6113299 64.8502163 23.9841397 64.8502163"></polygon>
            <polygon id="Path_2437" points="24.964387 6.08787993 23.8445201 0.583729393 23.8765718 0.439982388 23.8134397 0.433183543 23.8066409 0.401131846 23.7784742 0.429298489 19.4748054 0 18.5142258 4.22111138 12.6798456 5.54979992 11.3550422 11.3773812 5.52746086 12.6953859 4.20751369 18.5229671 0 19.4757767 0.428327225 23.7784742 0.401131846 23.8056696 0.432212279 23.8124684 0.438039861 23.8746293 0.580815602 23.8425776 6.08690866 24.9634157"></polygon>
            <polygon id="Path_2438" points="74.5668165 51.2156982 74.5940118 51.1885028 74.5629314 51.181704 74.5571038 51.1195431 74.4143281 51.1515948 68.908235 50.0307567 50.035613 68.9033787 51.1564511 74.4075292 51.1234282 74.5512762 51.1865603 74.5580751 51.1933591 74.5901268 51.2215258 74.5619601 55.5251946 74.9912586 56.4857742 70.7701472 62.3201544 69.4414587 63.6449578 63.6138774 69.4725391 62.2958728 70.7924863 56.4682915 75 55.5154819"></polygon>
        </g>
        <g id="pre-workout" transform="translate(45.847946, 394.340879) rotate(-15.000000) translate(-45.847946, -394.340879) translate(8.347946, 358.900678)" fill="#D80012" fill-rule="nonzero">
            <rect id="Rectangle_881" x="0" y="32.7640227" width="10.9442887" height="4.10491145"></rect>
            <polygon id="Rectangle_882" transform="translate(10.946840, 15.274501) rotate(-54.149452) translate(-10.946840, -15.274501) " points="8.89369759 9.7993011 12.9999826 9.7993011 12.9999826 20.7497005 8.89369759 20.7497005"></polygon>
            <polygon id="Rectangle_883" transform="translate(10.944407, 54.358247) rotate(-35.804106) translate(-10.944407, -54.358247) " points="5.47241053 52.3053879 16.4164038 52.3053879 16.4164038 56.4111064 5.47241053 56.4111064"></polygon>
            <rect id="Rectangle_884" x="64.0575471" y="32.7631048" width="10.9424529" height="4.10491145"></rect>
            <polygon id="Rectangle_885" transform="translate(64.058341, 15.272593) rotate(-35.833000) translate(-64.058341, -15.272593) " points="58.5861964 13.2205964 69.5304851 13.2205964 69.5304851 17.3245899 58.5861964 17.3245899"></polygon>
            <polygon id="Rectangle_886" transform="translate(64.060636, 54.359453) rotate(-54.149452) translate(-64.060636, -54.359453) " points="62.0065754 48.8842531 66.1146972 48.8842531 66.1146972 59.8346525 62.0065754 59.8346525"></polygon>
            <polygon id="Path_2400" points="27.6595029 0 57.0814006 0 42.2359773 26.7480142 59.7534483 26.7480142 25.5152557 70.8804019 33.5378242 40.1211035 17.7570465 40.1211035"></polygon>
        </g>
        <g id="fatburners" transform="translate(367.000000, 236.000000)" fill="#D80012" fill-rule="nonzero">
            <path d="M29.3796617,74.99935 C20.7239355,75.0574063 12.4966157,71.2239875 6.9553391,64.5503467 L6.79529008,64.82 L4.56430375,61.1869805 C2.87448856,58.4190827 1.69798711,55.3670023 1.09172503,52.1784159 C-1.21104086,42.9732088 -1.00540212,29.3016851 13.2166507,17.1770177 L16.1489428,14.6780999 L16.8997182,18.4678494 C16.9113581,18.5311255 17.912392,23.4131172 20.9601133,26.3812513 C22.310345,15.5552035 28.9596543,0 47.5777202,0 L51.3248072,0 L49.5788179,3.32442706 C41.1030098,19.4627438 45.5339427,24.5559803 50.6642413,30.4513625 C54.1785297,34.4951897 58.1632653,39.0783237 58.1632653,47.0910204 C58.1603553,62.4807326 45.2487644,74.99935 29.3796617,74.99935 Z M8.50732959,58.9606365 L8.67901854,59.2332103 C13.198004,66.297978 21.0158423,70.5381995 29.3806317,70.4613045 C42.7578197,70.4613045 53.641153,59.9798679 53.641153,47.0978347 C53.641153,40.7848305 50.537172,37.2189809 47.2547122,33.4438336 C42.1816432,27.6029661 36.4693482,21.041725 43.8160832,4.81579522 C25.6830143,7.56587031 25.2125672,30.0921491 25.2096572,30.3335716 L25.1766774,33.5460487 L22.1696959,32.4333635 C17.4380649,30.6811033 14.8763106,26.2323092 13.5920384,23.001336 C3.67869918,32.9804581 3.6428094,43.713052 5.51489792,51.1961767 C6.02408592,53.9187811 7.02474276,56.5250825 8.46755983,58.8866522 L8.50732959,58.9606365 Z" id="Path_2404"></path>
            <path d="M39.6330974,32.9081633 C26.7849905,32.9081633 25.5914505,46.5960474 25.5709731,48.7439447 C21.8411607,47.3781569 20.8504445,42.3041248 20.8504445,42.3041248 C13.1294889,48.8155735 13.1694686,56.1459141 14.3600832,60.8559943 C14.6815425,62.5192907 15.3036153,64.1111008 16.1962236,65.5544591 C16.2771581,65.6957808 16.3259138,65.7770892 16.3259138,65.7770892 L16.3317645,65.7683776 C19.1576882,70.1197674 24.0278499,72.7357776 29.2432538,72.7040816 C37.6097351,72.7040816 44.3877551,66.2184778 44.3877551,58.2279903 C44.3877551,47.7992183 31.0491657,49.0749861 39.6330974,32.9081633 Z" id="Path_2405"></path>
        </g>
        <g id="amino-acids" transform="translate(431.777159, 468.212735)" fill="#D80012" fill-rule="nonzero">
            <path d="M66.9635641,15.7497475 C61.33847,14.406838 55.6894528,17.8769352 54.344368,23.5015095 C54.103556,24.5797414 54.035875,25.6894275 54.1438644,26.7889333 L41.7627664,30.1379702 C40.3238576,28.2727964 38.2919446,26.9540422 36.0024647,26.3994132 C34.1134775,25.9551026 32.1379291,26.0473334 30.2985546,26.6657071 L19.1006368,16.2583165 C19.8165175,15.2421416 20.3422869,14.1046257 20.6524512,12.9009253 C21.9933557,7.27769767 18.5240715,1.63158025 12.9017334,0.286950679 C10.2010273,-0.358755235 7.35442126,0.0951699697 4.98848126,1.54881291 C2.62254126,3.00245585 0.931191463,5.33666873 0.28671453,8.03766842 C-0.358678601,10.7382251 0.0953991059,13.5845614 1.54901524,15.950262 C3.00263138,18.3159625 5.33665963,20.0071541 8.03743227,20.651643 C10.1242148,21.1454064 12.3125887,20.9823726 14.3031701,20.1848456 L25.2024212,30.3144551 C24.3411297,31.4544726 23.7223867,32.758773 23.3843129,34.1469981 C22.3305867,38.5770174 24.2688535,43.1790806 28.1744695,45.5203566 L24.7387566,59.9472181 C20.0621761,60.1252369 16.0750878,63.3928314 14.9819584,67.9433439 C13.6398221,73.5667683 17.109606,79.213699 22.7326762,80.5573185 C25.4333823,81.2030244 28.2799883,80.7490992 30.6459283,79.2954563 C33.0118683,77.8418134 34.7032181,75.5076005 35.3476951,72.8066008 C36.3872519,68.4280939 34.5049212,63.8760771 30.6765875,61.5105197 L34.1404962,47.0042922 C38.7606399,46.7651406 42.6727622,43.514671 43.7542267,39.0165207 C43.9814253,37.9972259 44.0518542,36.949244 43.9630846,35.9087148 L56.4423459,32.5304378 C57.8783869,34.3182802 59.8667463,35.5794598 62.09613,36.1165284 C64.7968544,36.7625237 67.6435964,36.3087225 70.0096089,34.8550351 C72.3756213,33.4013476 74.0669219,31.0669574 74.7111489,28.3658106 C76.0541694,22.7427633 72.5860141,17.0952659 66.9635641,15.7497475 Z" id="Path_2515"></path>
        </g>
        <path d="M237.010496,475.806532 L226.6735,480.25609 L226.6735,446.759217 L237.010496,442.64588 L237.010496,475.806532 Z M208.002526,454.184685 L221.308278,448.890999 L221.308278,482.563136 L208.002526,488.289617 L208.002526,454.184685 Z M194.160251,446.11539 L205.141074,441.497722 L217.409549,446.591107 L206.214118,451.044242 L194.160251,446.11539 Z M204.425711,488.225234 L191.119959,482.180417 L191.119959,448.740773 L204.425711,454.173955 L204.425711,488.225234 Z M175.81119,442.463462 L185.754736,446.544608 L185.754736,479.737452 L175.81119,475.194897 L175.81119,442.463462 Z M189.403087,434.844846 L189.367319,434.955727 L198.166284,438.611232 L187.149694,443.250362 L178.52957,439.720045 L189.403087,434.844846 Z M214.977315,423.320348 C215.907287,423.320348 216.873027,423.685183 217.58839,424.411277 C219.054884,425.86704 219.054884,428.234892 217.58839,429.690656 C216.801491,430.509746 213.296212,431.582791 209.647861,432.36969 C210.43476,428.721339 211.507805,425.233944 212.330472,424.411277 C213.045835,423.685183 214.011575,423.320348 214.977315,423.320348 Z M195.197528,424.411277 C195.948659,423.685183 196.914399,423.323925 197.844371,423.323925 C198.810111,423.323925 199.775851,423.685183 200.491214,424.411277 C201.313882,425.233944 202.386926,428.721339 203.173825,432.36969 C199.525474,431.582791 196.055963,430.513323 195.197528,429.690656 C193.766802,428.234892 193.766802,425.86704 195.197528,424.411277 Z M224.56318,443.747539 L212.080095,438.568311 L221.379814,434.648121 L221.308278,434.533663 L234.113276,439.956115 L224.56318,443.747539 Z M222.953613,431.339567 C223.633208,430.030453 224.062425,428.578266 224.062425,427.050966 C224.062425,424.622309 223.132454,422.336724 221.415582,420.619853 C217.946072,417.182533 211.972791,417.178956 208.539048,420.619853 C207.716381,421.435366 207.036786,422.758788 206.392959,424.271781 C205.7849,422.758788 205.105306,421.435366 204.282638,420.616276 C200.741591,417.075229 194.947151,417.075229 191.406104,420.619853 C189.689233,422.336724 188.759261,424.622309 188.759261,427.050966 C188.759261,428.381541 189.081174,429.658464 189.617696,430.835236 L172.234375,438.639847 L172.234375,477.491212 L206.17835,492.960938 L240.587311,478.160077 L240.587311,438.825841 L222.953613,431.339567 L222.953613,431.339567 Z" id="Fill-109" fill="#D80012" transform="translate(206.410843, 455.460938) rotate(-15.000000) translate(-206.410843, -455.460938) "></path>
    </g>
</svg>