<?xml version="1.0" encoding="UTF-8"?>
<svg width="821px" height="548px" viewBox="0 0 821 548" version="1.1" xmlns="http://www.w3.org/2000/svg" xmlns:xlink="http://www.w3.org/1999/xlink">
    <title>ICONS-LEFT</title>
    <g id="ICONS-LEFT" stroke="none" stroke-width="1" fill="none" fill-rule="evenodd">
        <g id="Left" transform="translate(345.655627, 257.064476) rotate(-15.000000) translate(-345.655627, -257.064476) translate(-52.002442, -49.525312)">
            <g id="Row-4" transform="translate(220.527981, 537.459944)" fill="#D80012">
                <g id="Bag" transform="translate(504.410249, -0.000000)">
                    <path d="M44.4186047,39.0988372 C45.494186,38.6918605 46.9186047,38.4883721 48.7209302,38.4883721 C50.1453488,38.4883721 51.3662791,38.6337209 52.3837209,38.8953488 L55.0581395,36.8313953 L57.5,39.1860465 L55.5813953,41.5697674 C55.9302326,42.4127907 56.1046512,43.4593023 56.1046512,44.7674419 C56.1046512,46.8604651 55.6395349,48.4011628 54.6802326,49.3604651 C53.7209302,50.3197674 52.1511628,50.872093 49.9709302,50.9883721 L49.8255814,52.6453488 C51.627907,52.877907 52.9651163,53.1395349 53.8662791,53.4593023 C54.7674419,53.75 55.4069767,54.1860465 55.755814,54.7093023 C56.1337209,55.2325581 56.3081395,55.9883721 56.3081395,56.9767442 C56.3081395,58.6627907 55.7267442,59.8837209 54.622093,60.6104651 C53.4883721,61.3372093 51.627907,61.7151163 49.0406977,61.7151163 C46.2790698,61.7151163 43.8372093,61.3372093 41.6569767,60.6395349 L42.2674419,57.0348837 C44.3895349,57.5872093 46.3372093,57.877907 48.0523256,57.877907 C49.4186047,57.877907 50.6395349,57.7906977 51.7732558,57.5872093 L51.7732558,55.6976744 C49.5348837,55.5523256 47.9651163,55.3488372 47.005814,55.1162791 C46.0755814,54.8837209 45.5813953,54.5639535 45.5813953,54.1569767 L46.5697674,50.9302326 C44.7093023,50.6976744 43.372093,50.1162791 42.5872093,49.127907 C41.744186,48.1686047 41.3372093,46.7151163 41.3372093,44.7674419 C41.3372093,43.255814 41.5988372,42.0348837 42.0930233,41.1046512 C42.5581395,40.2034884 43.3430233,39.5348837 44.4186047,39.0988372 Z M46.627907,41.6860465 C46.3662791,41.8895349 46.2209302,42.3255814 46.2209302,42.9360465 L46.2209302,48.2267442 L49.4186047,48.2267442 C50.0872093,48.2267442 50.5813953,48.1104651 50.8430233,47.8488372 C51.1046512,47.6162791 51.25,47.2093023 51.25,46.627907 L51.25,41.3372093 L48.0232558,41.3372093 C47.3546512,41.3372093 46.8895349,41.4534884 46.627907,41.6860465 L46.627907,41.6860465 Z" id="Fill-166"></path>
                    <polyline id="Fill-167" points="35.5813953 46.9767442 39.8837209 55.9593023 34.6511628 55.9593023 31.4244186 48.4883721 29.4767442 48.4883721 29.4767442 55.9593023 24.4186047 55.9593023 24.4186047 33.8953488 29.4767442 33.4011628 29.4767442 45.2906977 31.3953488 45.2906977 34.3895349 38.9825581 39.7383721 38.9825581 35.5813953 46.9767442"></polyline>
                    <path d="M5.34883721,16.2790698 L5.34883721,0 L65.5523256,0 L65.5523256,15.6395349 L70.377907,75 L0,75 L5.34883721,16.2790698 Z M4.76744186,70.6395349 L10.9883721,70.6395349 L7.70348837,38.4302326 L4.76744186,70.6395349 Z M61.3372093,17.6453488 L24.9709302,17.6453488 L24.9709302,13.2848837 L61.1918605,13.2848837 L61.1918605,4.36046512 L9.70930233,4.36046512 L9.70930233,15.0581395 L15.377907,70.6395349 L65.6686047,70.6395349 L61.3372093,17.6453488 L61.3372093,17.6453488 Z" id="Fill-168"></path>
                    <polyline id="Fill-165" points="7.70348837 38.4302326 10.9883721 70.6395349 4.76744186 70.6395349 7.70348837 38.4302326"></polyline>
                </g>
                <g id="Weights" transform="translate(128.723682, 0.719632)">
                    <path d="M14.1723635,70.9498812 L12.9509153,72.1743357 C11.8474,73.2752214 10.0643663,73.2752214 8.96085102,72.1743357 L2.82553054,66.0380212 C1.72482315,64.9371355 1.72482315,63.1510045 2.82553054,62.0501188 L4.04978671,60.8256643 C5.15049409,59.7247786 6.93633566,59.7247786 8.03704304,60.8256643 L14.1723635,66.9619788 C15.2758788,68.0628645 15.2758788,69.8489955 14.1723635,70.9498812" id="Fill-19"></path>
                    <path d="M72.2439619,13.6878178 L70.6850636,15.2439619 C69.6770127,16.2520127 68.04375,16.2520127 67.0356992,15.2439619 L60.7560381,8.96430085 C59.7479873,7.95625 59.7479873,6.32298729 60.7560381,5.31493644 L62.3149364,3.75603814 C63.3229873,2.74798729 64.95625,2.74798729 65.9643008,3.75603814 L72.2439619,10.0356992 C73.2520127,11.04375 73.2520127,12.6797669 72.2439619,13.6878178" id="Fill-20"></path>
                    <path d="M50.1701665,35.2732727 L34.2715424,51.1702524 C33.1650978,52.2765825 31.3721941,52.2765825 30.2657495,51.1702524 L23.8298335,44.7321059 C22.7233888,43.6257758 22.7233888,41.8330575 23.8298335,40.7267273 L39.7284576,24.8297476 C40.8349022,23.7234175 42.6278059,23.7234175 43.7342505,24.8297476 L50.1701665,31.2678941 C51.2766112,32.3742242 51.2766112,34.1669425 50.1701665,35.2732727" id="Fill-21"></path>
                    <path d="M36.4419482,13.8995207 L62.0743593,39.5481788 L67.5580518,34.0626442 L41.9256407,8.41398604 L36.4419482,13.8995207 Z M62.0743593,44 C61.0329712,44 60.0629111,43.5945102 59.3296599,42.8606308 L33.1323314,16.6408602 C31.6230321,15.1302679 31.6230321,12.6687735 33.1294783,11.1581811 L39.1866476,5.09867853 C40.6474439,3.63663078 43.2009844,3.63091965 44.6703401,5.09867853 L70.8676686,31.318449 C72.3769679,32.8318969 72.3769679,35.2933914 70.8705217,36.8039837 L70.8676686,36.8039837 L64.8133524,42.8634863 C64.0829543,43.5945102 63.1100411,44 62.0743593,44 L62.0743593,44 Z" id="Fill-22"></path>
                    <path d="M49.5796255,10.049367 L64.9480316,25.4231739 L70.4182388,19.94921 L55.0498327,4.57540323 L49.5796255,10.049367 Z M64.9480316,30 C64.0453478,30 63.1426639,29.6553852 62.4563964,28.9718517 L46.031537,12.5442642 C44.6561543,11.165805 44.6561543,8.930081 46.031537,7.55731796 L52.5581975,1.02957339 C53.9335801,-0.346037708 56.1717805,-0.340341596 57.5443155,1.02957339 L73.9663273,17.457161 C74.6326618,18.120758 75,19.0093515 75,19.9520581 C75,20.8947647 74.6326618,21.7805101 73.9634797,22.4469552 L67.4425144,28.9718517 C66.7533993,29.6582333 65.8507155,30 64.9480316,30 L64.9480316,30 Z" id="Fill-23"></path>
                    <path d="M7.4503878,41.8994226 L33.0714986,67.5534536 L38.5546046,62.0645248 L12.930641,36.4133496 L7.4503878,41.8994226 Z M33.0714986,72 C32.0815726,72 31.0887938,71.6230288 30.3327984,70.8690865 L4.13827227,44.6410311 C3.4050994,43.9127914 3,42.9389492 3,41.8994226 C3,40.859896 3.4050994,39.8860538 4.14112508,39.1549582 L10.189088,33.0977167 C11.6468753,31.6383813 14.2058483,31.6298138 15.672194,33.0977167 L41.8638673,59.3200604 C43.3787109,60.8336568 43.3787109,63.2953928 41.8638673,64.8089892 L35.8130516,70.8662306 C35.0570563,71.6230288 34.0642774,72 33.0714986,72 L33.0714986,72 Z" id="Fill-24"></path>
                    <path d="M4.57803304,55.051963 L19.9511107,70.418728 L25.421967,64.9462577 L10.0488893,49.5794927 L4.57803304,55.051963 Z M19.9511107,75 C19.0483197,75 18.1455288,74.6554792 17.4591798,73.9664377 L1.02952345,57.5433322 C-0.343174483,56.1680964 -0.343174483,53.9301351 1.02952345,52.5577466 L7.55695842,46.031783 C8.92965635,44.6565472 11.1595785,44.6565472 12.5408202,46.0289357 L28.9704766,62.4548885 C30.3431745,63.8301243 30.3431745,66.0680856 28.9704766,67.4404741 L22.4430416,73.9664377 C21.7566926,74.6554792 20.8539017,75 19.9511107,75 L19.9511107,75 Z" id="Fill-25"></path>
                </g>
                <g id="natural-products" transform="translate(-0.000000, 0.586305)" fill-rule="nonzero">
                    <path d="M42.5920907,67.283707 C34.9563491,67.1136133 27.4454554,65.3109989 20.5643651,61.9967888 L22.5635036,58.1003289 C22.6946909,58.1678806 35.8457326,64.7801143 48.484752,62.3727287 C62.2976045,59.7342967 70.258914,49.5555294 72.7720327,45.8137531 C64.7633042,38.7281159 54.4531913,34.7931973 43.7600496,34.7411497 C25.5289249,34.7411497 19.2299744,50.5502036 18.9705368,51.2218045 L17.9836947,53.7897478 L15.7016223,52.2546601 C15.1240064,51.8630561 1.50597695,42.5389646 0.172565294,30.1358866 C-1.76195852,12.1759477 13.1933986,1.24627976 13.8277971,0.7910401 L14.9340785,0 L16.1304287,0.639293546 C16.6786743,0.932996554 29.5174118,7.91235902 31.8347285,20.7354323 C32.5895806,24.6135249 32.7099322,28.5884335 32.1910882,32.5050909 C35.8741099,31.0581682 39.8001778,30.3300477 43.7571126,30.3600799 C56.2619566,30.308274 68.2784664,35.210551 77.1785568,43.9947525 L78.2260976,45.1450893 L77.484987,46.5157033 C77.1198162,47.1902412 68.3243902,63.0423716 49.3041834,66.6705827 C47.091268,67.0869117 44.8438121,67.2921199 42.5920907,67.283707 L42.5920907,67.283707 Z M15.277711,5.23770363 C12.0939704,7.98382675 3.14581874,16.9231673 4.52034881,29.6649828 C5.35740239,37.4451754 12.5403989,44.1778274 16.1235756,47.0913612 C18.7584864,42.287209 22.5138941,38.1899121 27.0708657,35.1474389 C27.3831699,34.3270285 28.9740612,29.5612077 27.5202313,21.5068922 C25.9714375,12.9013941 18.2930618,7.18103853 15.277711,5.23770363 Z" id="Path_2486"></path>
                    <path d="M14.9487636,49.5633615 C11.078737,41.4738017 12.6901875,26.4841792 12.7596972,25.8507597 L17.1084597,26.3324326 C17.0967116,26.4753681 15.5674979,40.7140899 18.9000481,47.6748512 L14.9487636,49.5633615 Z" id="Path_2487"></path>
                </g>
                <g id="pre-workout" transform="translate(379.787753, 0.720395)" fill-rule="nonzero">
                    <rect id="Rectangle_881" x="0" y="32.7640227" width="10.9442887" height="4.10491145"></rect>
                    <polygon id="Rectangle_882" transform="translate(10.946840, 15.274501) rotate(-54.149452) translate(-10.946840, -15.274501) " points="8.89369759 9.7993011 12.9999826 9.7993011 12.9999826 20.7497005 8.89369759 20.7497005"></polygon>
                    <polygon id="Rectangle_883" transform="translate(10.944407, 54.358247) rotate(-35.804106) translate(-10.944407, -54.358247) " points="5.47241053 52.3053879 16.4164038 52.3053879 16.4164038 56.4111064 5.47241053 56.4111064"></polygon>
                    <rect id="Rectangle_884" x="64.0575471" y="32.7631048" width="10.9424529" height="4.10491145"></rect>
                    <polygon id="Rectangle_885" transform="translate(64.058341, 15.272593) rotate(-35.833000) translate(-64.058341, -15.272593) " points="58.5861964 13.2205964 69.5304851 13.2205964 69.5304851 17.3245899 58.5861964 17.3245899"></polygon>
                    <polygon id="Rectangle_886" transform="translate(64.060636, 54.359453) rotate(-54.149452) translate(-64.060636, -54.359453) " points="62.0065754 48.8842531 66.1146972 48.8842531 66.1146972 59.8346525 62.0065754 59.8346525"></polygon>
                    <polygon id="Path_2400" points="27.6595029 0 57.0814006 0 42.2359773 26.7480142 59.7534483 26.7480142 25.5152557 70.8804019 33.5378242 40.1211035 17.7570465 40.1211035"></polygon>
                </g>
                <g id="protein-bars" transform="translate(254.256810, 0.720306)" fill-rule="nonzero">
                    <polygon id="Rectangle_894" transform="translate(37.297735, 37.696601) rotate(-45.000000) translate(-37.297735, -37.696601) " points="23.9841397 10.5429863 50.6113299 10.5429863 50.6113299 64.8502163 23.9841397 64.8502163"></polygon>
                    <polygon id="Path_2437" points="24.964387 6.08787993 23.8445201 0.583729393 23.8765718 0.439982388 23.8134397 0.433183543 23.8066409 0.401131846 23.7784742 0.429298489 19.4748054 0 18.5142258 4.22111138 12.6798456 5.54979992 11.3550422 11.3773812 5.52746086 12.6953859 4.20751369 18.5229671 0 19.4757767 0.428327225 23.7784742 0.401131846 23.8056696 0.432212279 23.8124684 0.438039861 23.8746293 0.580815602 23.8425776 6.08690866 24.9634157"></polygon>
                    <polygon id="Path_2438" points="74.5668165 51.2156982 74.5940118 51.1885028 74.5629314 51.181704 74.5571038 51.1195431 74.4143281 51.1515948 68.908235 50.0307567 50.035613 68.9033787 51.1564511 74.4075292 51.1234282 74.5512762 51.1865603 74.5580751 51.1933591 74.5901268 51.2215258 74.5619601 55.5251946 74.9912586 56.4857742 70.7701472 62.3201544 69.4414587 63.6449578 63.6138774 69.4725391 62.2958728 70.7924863 56.4682915 75 55.5154819"></polygon>
                </g>
            </g>
            <g id="Row-3" transform="translate(0.271886, 395.504413)">
                <g id="amino-acids" transform="translate(494.255906, 5.949198)" fill="#D80012" fill-rule="nonzero">
                    <path d="M66.9635641,15.7497475 C61.33847,14.406838 55.6894528,17.8769352 54.344368,23.5015095 C54.103556,24.5797414 54.035875,25.6894275 54.1438644,26.7889333 L41.7627664,30.1379702 C40.3238576,28.2727964 38.2919446,26.9540422 36.0024647,26.3994132 C34.1134775,25.9551026 32.1379291,26.0473334 30.2985546,26.6657071 L19.1006368,16.2583165 C19.8165175,15.2421416 20.3422869,14.1046257 20.6524512,12.9009253 C21.9933557,7.27769767 18.5240715,1.63158025 12.9017334,0.286950679 C10.2010273,-0.358755235 7.35442126,0.0951699697 4.98848126,1.54881291 C2.62254126,3.00245585 0.931191463,5.33666873 0.28671453,8.03766842 C-0.358678601,10.7382251 0.0953991059,13.5845614 1.54901524,15.950262 C3.00263138,18.3159625 5.33665963,20.0071541 8.03743227,20.651643 C10.1242148,21.1454064 12.3125887,20.9823726 14.3031701,20.1848456 L25.2024212,30.3144551 C24.3411297,31.4544726 23.7223867,32.758773 23.3843129,34.1469981 C22.3305867,38.5770174 24.2688535,43.1790806 28.1744695,45.5203566 L24.7387566,59.9472181 C20.0621761,60.1252369 16.0750878,63.3928314 14.9819584,67.9433439 C13.6398221,73.5667683 17.109606,79.213699 22.7326762,80.5573185 C25.4333823,81.2030244 28.2799883,80.7490992 30.6459283,79.2954563 C33.0118683,77.8418134 34.7032181,75.5076005 35.3476951,72.8066008 C36.3872519,68.4280939 34.5049212,63.8760771 30.6765875,61.5105197 L34.1404962,47.0042922 C38.7606399,46.7651406 42.6727622,43.514671 43.7542267,39.0165207 C43.9814253,37.9972259 44.0518542,36.949244 43.9630846,35.9087148 L56.4423459,32.5304378 C57.8783869,34.3182802 59.8667463,35.5794598 62.09613,36.1165284 C64.7968544,36.7625237 67.6435964,36.3087225 70.0096089,34.8550351 C72.3756213,33.4013476 74.0669219,31.0669574 74.7111489,28.3658106 C76.0541694,22.7427633 72.5860141,17.0952659 66.9635641,15.7497475 Z" id="Path_2515"></path>
                </g>
                <g id="creatine-supps" transform="translate(243.194681, 5.940456)" fill="#D80012" fill-rule="nonzero">
                    <path d="M40.4093271,71.673077 L13.7074884,71.673077 C6.14103476,71.6633989 0.00960756462,65.4869337 0,57.8649012 L0,21.5374259 C0.00960756462,13.9153934 6.14103476,7.7389282 13.7074884,7.72925007 L40.4093271,7.72925007 C47.9770051,7.73739921 54.1103704,13.9141625 54.1204867,21.5374259 L54.1204867,46.3579339 L49.5406161,46.3579339 L49.5406161,21.5374259 C49.5345445,16.4602953 45.4494375,12.3464222 40.4093271,12.3418372 L13.7074884,12.3418372 C8.66845327,12.3479505 4.58502147,16.4613769 4.57895277,21.5374259 L4.57895277,57.8649012 C4.5860302,62.9405285 8.66887187,67.0533604 13.7074884,67.0604898 L40.4093271,67.0604898 C45.4488096,67.0543799 49.533031,62.9413988 49.5406161,57.8649012 L54.1204867,57.8649012 C54.1103704,65.4881646 47.9770051,71.6649279 40.4093271,71.673077 L40.4093271,71.673077 Z" id="Path_2416"></path>
                    <rect id="Rectangle_890" x="1.69244115" y="26.6705355" width="28.8430888" height="24.0281675"></rect>
                    <rect id="Rectangle_891" x="7.62699891" y="0" width="38.8646533" height="7.87255554" rx="1.022"></rect>
                    <path d="M51.560734,62.8967819 C44.7930806,62.8967819 39.4933281,58.8818952 39.4933281,53.7548077 C39.4933281,48.6277203 44.7921801,44.6128336 51.560734,44.6128336 C58.3292879,44.6128336 63.6281398,48.6277203 63.6281398,53.7548077 C63.6281398,58.8818952 58.3283873,62.8967819 51.560734,62.8967819 Z M51.560734,49.2483971 C47.0966944,49.2483971 43.9879865,51.6223928 43.9879865,53.7548077 C43.9879865,55.8872227 47.0975949,58.2612184 51.560734,58.2612184 C56.023873,58.2612184 59.1307797,55.8844352 59.1307797,53.7548077 C59.1307797,51.6251803 56.0211714,49.2483971 51.560734,49.2483971 Z" id="Path_2417"></path>
                    <path d="M38.7619702,53.3891288 L65.0908556,53.3891288 L65.0908556,70.7383934 C65.0908556,71.2546049 64.66648,71.673077 64.1429861,71.673077 L39.7098398,71.673077 C39.1863459,71.673077 38.7619702,71.2546049 38.7619702,70.7383934 L38.7619702,53.3891288 Z" id="Rectangle_892"></path>
                    <rect id="Rectangle_893" x="52.6577709" y="53.3891288" width="23.4034537" height="6.58222136"></rect>
                </g>
                <g id="fatburners" transform="translate(-0.000000, 5.949198)" fill="#D80012" fill-rule="nonzero">
                    <path d="M29.3796617,74.99935 C20.7239355,75.0574063 12.4966157,71.2239875 6.9553391,64.5503467 L6.79529008,64.82 L4.56430375,61.1869805 C2.87448856,58.4190827 1.69798711,55.3670023 1.09172503,52.1784159 C-1.21104086,42.9732088 -1.00540212,29.3016851 13.2166507,17.1770177 L16.1489428,14.6780999 L16.8997182,18.4678494 C16.9113581,18.5311255 17.912392,23.4131172 20.9601133,26.3812513 C22.310345,15.5552035 28.9596543,0 47.5777202,0 L51.3248072,0 L49.5788179,3.32442706 C41.1030098,19.4627438 45.5339427,24.5559803 50.6642413,30.4513625 C54.1785297,34.4951897 58.1632653,39.0783237 58.1632653,47.0910204 C58.1603553,62.4807326 45.2487644,74.99935 29.3796617,74.99935 Z M8.50732959,58.9606365 L8.67901854,59.2332103 C13.198004,66.297978 21.0158423,70.5381995 29.3806317,70.4613045 C42.7578197,70.4613045 53.641153,59.9798679 53.641153,47.0978347 C53.641153,40.7848305 50.537172,37.2189809 47.2547122,33.4438336 C42.1816432,27.6029661 36.4693482,21.041725 43.8160832,4.81579522 C25.6830143,7.56587031 25.2125672,30.0921491 25.2096572,30.3335716 L25.1766774,33.5460487 L22.1696959,32.4333635 C17.4380649,30.6811033 14.8763106,26.2323092 13.5920384,23.001336 C3.67869918,32.9804581 3.6428094,43.713052 5.51489792,51.1961767 C6.02408592,53.9187811 7.02474276,56.5250825 8.46755983,58.8866522 L8.50732959,58.9606365 Z" id="Path_2404"></path>
                    <path d="M39.6330974,32.9081633 C26.7849905,32.9081633 25.5914505,46.5960474 25.5709731,48.7439447 C21.8411607,47.3781569 20.8504445,42.3041248 20.8504445,42.3041248 C13.1294889,48.8155735 13.1694686,56.1459141 14.3600832,60.8559943 C14.6815425,62.5192907 15.3036153,64.1111008 16.1962236,65.5544591 C16.2771581,65.6957808 16.3259138,65.7770892 16.3259138,65.7770892 L16.3317645,65.7683776 C19.1576882,70.1197674 24.0278499,72.7357776 29.2432538,72.7040816 C37.6097351,72.7040816 44.3877551,66.2184778 44.3877551,58.2279903 C44.3877551,47.7992183 31.0491657,49.0749861 39.6330974,32.9081633 Z" id="Path_2405"></path>
                </g>
                <g id="Arm" transform="translate(370.812273, 0.000000)" fill="#D80012">
                    <polyline id="Fill-84" points="44.313734 50.8891103 52.5541646 50.8891103 38.7628883 39.4758594 24.9779703 50.8891103 33.218401 50.8891103 33.218401 62.5058285 44.313734 62.5058285 44.313734 50.8891103"></polyline>
                    <path d="M34.1181085,75 C24.793578,75 16.1748251,71.1086855 7.31445458,67.1029206 C5.52457708,66.2954093 3.70608698,65.4783604 1.85262592,64.6740282 L0.587312873,64.1208512 L0.434712305,62.7442669 C-3.59012768,26.3204188 21.6302954,1.98380738 22.7048577,0.966470264 L23.7221948,0 L53.9720782,9.57250646 L53.3076299,12.217583 C52.3443389,16.064389 49.7978169,19.3643762 46.3229748,21.2750625 C42.8449535,23.1825696 38.686588,23.5577127 34.9256199,22.3019372 L26.0779661,19.3453012 L27.5880759,14.8245093 L36.4325505,17.7779662 C38.9727141,18.6236277 41.6718366,18.3851893 44.0276079,17.0912636 C45.8556355,16.0898224 47.2640116,14.5701751 48.1033147,12.716714 L25.0224788,5.41414099 C20.5843456,10.1415794 2.41216133,31.4611504 5.0349836,60.8621932 C6.47197228,61.4916706 7.88352753,62.1275063 9.27600771,62.7601628 C27.0412572,70.7844093 41.0709719,77.1236912 62.5049933,55.4480522 L65.8939976,58.8020855 C53.8925988,70.9401891 43.6365689,75 34.1181085,75" id="Fill-85"></path>
                    <path d="M70.0746174,63.6312577 C63.1535458,61.3295324 57.1448984,54.767708 56.8937433,54.4911195 L60.4226314,51.2865076 C60.4798566,51.3437328 65.8590267,57.2029588 71.5783688,59.1041075 L70.0746174,63.6312577" id="Fill-86"></path>
                    <path d="M34.3883387,19.9811369 L32.7288075,18.2707388 L34.3660844,20.0002119 L32.7288075,18.2707388 L31.0883514,16.5412657 C30.8117629,16.8019584 25.060629,22.4577169 25.7314356,35.1331016 C27.0825865,34.3796363 28.659459,33.6293502 30.4334406,33.0125895 C30.439799,24.0409478 34.1912296,20.1750668 34.3883387,19.9811369" id="Fill-87"></path>
                    <path d="M51.9151498,35.7117121 C43.7224068,30.4851426 36.1019159,31.0446781 30.4333744,33.0125895 C30.4302615,34.4909075 30.5415327,36.1154678 30.7767919,37.8767327 C35.2912254,36.0328091 41.6495824,35.1871476 48.7105378,39.3868424 C49.2923275,38.4648807 50.3255605,37.0724005 51.9151498,35.7117121" id="Fill-88"></path>
                    <path d="M20.6129582,38.7414692 L23.9351998,42.1622653 C24.0687253,42.0350981 24.9239243,41.2403035 26.3132253,40.2833708 C25.9984866,38.4489848 25.8172735,36.7385867 25.7314356,35.1331016 C22.5649738,36.903904 20.6733626,38.684244 20.6129582,38.7414692" id="Fill-89"></path>
                    <path d="M52.5827772,42.1876987 C52.9483828,42.4992582 53.3108091,42.7535925 53.682773,43.0969437 L56.9159975,39.593489 C56.5726463,39.2755712 56.229295,38.9926243 55.8859437,38.6969607 C53.949824,40.0671866 52.9070535,41.605909 52.5827772,42.1876987" id="Fill-90"></path>
                    <path d="M25.7314356,35.1331016 C25.8172735,36.7385867 25.9984866,38.4489848 26.3132253,40.2833708 C27.4513712,39.4981137 28.961481,38.6206604 30.7767919,37.8767327 C30.5415327,36.1154678 30.4302615,34.4909075 30.4334406,33.0125895 C28.659459,33.6293502 27.0825865,34.3796363 25.7314356,35.1331016" id="Fill-91"></path>
                    <path d="M63.7416938,31.5692425 C58.1876689,31.5692425 54.3853715,33.5943792 51.9151498,35.7117121 C53.2249713,36.547836 54.5506887,37.5460981 55.8859437,38.6969607 C57.6662837,37.438006 60.184193,36.3380103 63.7416938,36.3380103 C63.744873,36.3380103 63.744873,36.3380103 63.7480521,36.3380103 L63.7480521,31.5692425 C63.744873,31.5692425 63.744873,31.5692425 63.7416938,31.5692425" id="Fill-92"></path>
                    <path d="M48.7105378,39.3868424 C49.9790301,40.1403077 51.2729557,41.0813446 52.5827772,42.1876987 C52.9070535,41.605909 53.949824,40.0671866 55.8859437,38.6969607 C54.5506887,37.5460981 53.2249713,36.547836 51.9151498,35.7117121 C50.3255605,37.0724005 49.2923275,38.4648807 48.7105378,39.3868424" id="Fill-93"></path>
                </g>
                <g id="icon-vitamins" transform="translate(118.199405, 5.949198)" fill="#D80012" fill-rule="nonzero">
                    <path d="M68.2419961,6.76003485 C63.9252245,2.41728004 58.0498535,-0.0170311392 51.9266403,8.97023143e-05 C45.8034485,-0.0169231263 39.9281175,2.41737149 35.6112846,6.76003485 L6.74840845,35.6200089 C-2.24946948,44.6356699 -2.24946948,59.2340921 6.74840845,68.2497531 C11.0723209,72.5806719 16.9438804,75.0099226 23.0637642,74.9999671 C29.1834399,75.0103073 35.0548406,72.5809783 39.3781526,68.2497531 L68.2419961,39.3868769 C77.2400731,30.3724311 77.2400731,15.7744806 68.2419961,6.76003485 L68.2419961,6.76003485 Z M16.0282144,44.8998149 C12.148346,48.788958 12.148346,55.0846734 16.0282144,58.9738165 L12.5138253,62.4882056 C6.69223811,56.6573061 6.69223811,47.2134233 12.5138253,41.3825237 L20.2719868,33.6243621 L23.7902454,37.1416533 L16.0282144,44.8998149 Z M64.7276069,35.8724878 L50.2966525,50.3044095 L24.6985888,24.7063457 L39.1266411,10.274424 C42.514939,6.86948908 47.1240687,4.96077371 51.9276077,4.97327442 C56.7311467,4.96077371 61.3402763,6.86948908 64.7285743,10.274424 C68.1343312,13.6621712 70.0431953,18.2716599 70.0297337,23.0753906 C70.0410973,27.8785225 68.1304967,32.4866054 64.7237375,35.8724878 L64.7276069,35.8724878 Z" id="Path_2403"></path>
                </g>
            </g>
            <g id="Row-2" transform="translate(-0.000000, 265.482332)" fill="#D80012">
                <g id="Weights" transform="translate(128.226098, -0.000000)">
                    <path d="M14.1723635,70.9498812 L12.9509153,72.1743357 C11.8474,73.2752214 10.0643663,73.2752214 8.96085102,72.1743357 L2.82553054,66.0380212 C1.72482315,64.9371355 1.72482315,63.1510045 2.82553054,62.0501188 L4.04978671,60.8256643 C5.15049409,59.7247786 6.93633566,59.7247786 8.03704304,60.8256643 L14.1723635,66.9619788 C15.2758788,68.0628645 15.2758788,69.8489955 14.1723635,70.9498812" id="Fill-19"></path>
                    <path d="M72.2439619,13.6878178 L70.6850636,15.2439619 C69.6770127,16.2520127 68.04375,16.2520127 67.0356992,15.2439619 L60.7560381,8.96430085 C59.7479873,7.95625 59.7479873,6.32298729 60.7560381,5.31493644 L62.3149364,3.75603814 C63.3229873,2.74798729 64.95625,2.74798729 65.9643008,3.75603814 L72.2439619,10.0356992 C73.2520127,11.04375 73.2520127,12.6797669 72.2439619,13.6878178" id="Fill-20"></path>
                    <path d="M50.1701665,35.2732727 L34.2715424,51.1702524 C33.1650978,52.2765825 31.3721941,52.2765825 30.2657495,51.1702524 L23.8298335,44.7321059 C22.7233888,43.6257758 22.7233888,41.8330575 23.8298335,40.7267273 L39.7284576,24.8297476 C40.8349022,23.7234175 42.6278059,23.7234175 43.7342505,24.8297476 L50.1701665,31.2678941 C51.2766112,32.3742242 51.2766112,34.1669425 50.1701665,35.2732727" id="Fill-21"></path>
                    <path d="M36.4419482,13.8995207 L62.0743593,39.5481788 L67.5580518,34.0626442 L41.9256407,8.41398604 L36.4419482,13.8995207 Z M62.0743593,44 C61.0329712,44 60.0629111,43.5945102 59.3296599,42.8606308 L33.1323314,16.6408602 C31.6230321,15.1302679 31.6230321,12.6687735 33.1294783,11.1581811 L39.1866476,5.09867853 C40.6474439,3.63663078 43.2009844,3.63091965 44.6703401,5.09867853 L70.8676686,31.318449 C72.3769679,32.8318969 72.3769679,35.2933914 70.8705217,36.8039837 L70.8676686,36.8039837 L64.8133524,42.8634863 C64.0829543,43.5945102 63.1100411,44 62.0743593,44 L62.0743593,44 Z" id="Fill-22"></path>
                    <path d="M49.5796255,10.049367 L64.9480316,25.4231739 L70.4182388,19.94921 L55.0498327,4.57540323 L49.5796255,10.049367 Z M64.9480316,30 C64.0453478,30 63.1426639,29.6553852 62.4563964,28.9718517 L46.031537,12.5442642 C44.6561543,11.165805 44.6561543,8.930081 46.031537,7.55731796 L52.5581975,1.02957339 C53.9335801,-0.346037708 56.1717805,-0.340341596 57.5443155,1.02957339 L73.9663273,17.457161 C74.6326618,18.120758 75,19.0093515 75,19.9520581 C75,20.8947647 74.6326618,21.7805101 73.9634797,22.4469552 L67.4425144,28.9718517 C66.7533993,29.6582333 65.8507155,30 64.9480316,30 L64.9480316,30 Z" id="Fill-23"></path>
                    <path d="M7.4503878,41.8994226 L33.0714986,67.5534536 L38.5546046,62.0645248 L12.930641,36.4133496 L7.4503878,41.8994226 Z M33.0714986,72 C32.0815726,72 31.0887938,71.6230288 30.3327984,70.8690865 L4.13827227,44.6410311 C3.4050994,43.9127914 3,42.9389492 3,41.8994226 C3,40.859896 3.4050994,39.8860538 4.14112508,39.1549582 L10.189088,33.0977167 C11.6468753,31.6383813 14.2058483,31.6298138 15.672194,33.0977167 L41.8638673,59.3200604 C43.3787109,60.8336568 43.3787109,63.2953928 41.8638673,64.8089892 L35.8130516,70.8662306 C35.0570563,71.6230288 34.0642774,72 33.0714986,72 L33.0714986,72 Z" id="Fill-24"></path>
                    <path d="M4.57803304,55.051963 L19.9511107,70.418728 L25.421967,64.9462577 L10.0488893,49.5794927 L4.57803304,55.051963 Z M19.9511107,75 C19.0483197,75 18.1455288,74.6554792 17.4591798,73.9664377 L1.02952345,57.5433322 C-0.343174483,56.1680964 -0.343174483,53.9301351 1.02952345,52.5577466 L7.55695842,46.031783 C8.92965635,44.6565472 11.1595785,44.6565472 12.5408202,46.0289357 L28.9704766,62.4548885 C30.3431745,63.8301243 30.3431745,66.0680856 28.9704766,67.4404741 L22.4430416,73.9664377 C21.7566926,74.6554792 20.8539017,75 19.9511107,75 L19.9511107,75 Z" id="Fill-25"></path>
                </g>
                <g id="natural-products" transform="translate(0.000000, 0.000000)" fill-rule="nonzero">
                    <path d="M42.5920907,67.283707 C34.9563491,67.1136133 27.4454554,65.3109989 20.5643651,61.9967888 L22.5635036,58.1003289 C22.6946909,58.1678806 35.8457326,64.7801143 48.484752,62.3727287 C62.2976045,59.7342967 70.258914,49.5555294 72.7720327,45.8137531 C64.7633042,38.7281159 54.4531913,34.7931973 43.7600496,34.7411497 C25.5289249,34.7411497 19.2299744,50.5502036 18.9705368,51.2218045 L17.9836947,53.7897478 L15.7016223,52.2546601 C15.1240064,51.8630561 1.50597695,42.5389646 0.172565294,30.1358866 C-1.76195852,12.1759477 13.1933986,1.24627976 13.8277971,0.7910401 L14.9340785,0 L16.1304287,0.639293546 C16.6786743,0.932996554 29.5174118,7.91235902 31.8347285,20.7354323 C32.5895806,24.6135249 32.7099322,28.5884335 32.1910882,32.5050909 C35.8741099,31.0581682 39.8001778,30.3300477 43.7571126,30.3600799 C56.2619566,30.308274 68.2784664,35.210551 77.1785568,43.9947525 L78.2260976,45.1450893 L77.484987,46.5157033 C77.1198162,47.1902412 68.3243902,63.0423716 49.3041834,66.6705827 C47.091268,67.0869117 44.8438121,67.2921199 42.5920907,67.283707 L42.5920907,67.283707 Z M15.277711,5.23770363 C12.0939704,7.98382675 3.14581874,16.9231673 4.52034881,29.6649828 C5.35740239,37.4451754 12.5403989,44.1778274 16.1235756,47.0913612 C18.7584864,42.287209 22.5138941,38.1899121 27.0708657,35.1474389 C27.3831699,34.3270285 28.9740612,29.5612077 27.5202313,21.5068922 C25.9714375,12.9013941 18.2930618,7.18103853 15.277711,5.23770363 Z" id="Path_2486"></path>
                    <path d="M13.9305932,75 L9.91665207,73.2544251 C10.1359503,72.7463189 15.4118353,60.7632362 24.7104726,53.9757597 C37.0234816,44.9845316 53.9740612,46.2220003 54.6975496,46.2709508 L54.3529381,50.6373355 C54.2070656,50.6255874 38.2726984,49.4928728 27.293101,57.5099859 C18.9705368,63.5886591 13.9805227,74.8883929 13.9305932,75 Z" id="Path_2488"></path>
                </g>
                <g id="pre-workout" transform="translate(379.287322, 0.000000)" fill-rule="nonzero">
                    <rect id="Rectangle_881" x="0" y="32.7640227" width="10.9442887" height="4.10491145"></rect>
                    <polygon id="Rectangle_882" transform="translate(10.946840, 15.274501) rotate(-54.149452) translate(-10.946840, -15.274501) " points="8.89369759 9.7993011 12.9999826 9.7993011 12.9999826 20.7497005 8.89369759 20.7497005"></polygon>
                    <polygon id="Rectangle_883" transform="translate(10.944407, 54.358247) rotate(-35.804106) translate(-10.944407, -54.358247) " points="5.47241053 52.3053879 16.4164038 52.3053879 16.4164038 56.4111064 5.47241053 56.4111064"></polygon>
                    <rect id="Rectangle_884" x="64.0575471" y="32.7631048" width="10.9424529" height="4.10491145"></rect>
                    <polygon id="Rectangle_885" transform="translate(64.058341, 15.272593) rotate(-35.833000) translate(-64.058341, -15.272593) " points="58.5861964 13.2205964 69.5304851 13.2205964 69.5304851 17.3245899 58.5861964 17.3245899"></polygon>
                    <polygon id="Rectangle_886" transform="translate(64.060636, 54.359453) rotate(-54.149452) translate(-64.060636, -54.359453) " points="62.0065754 48.8842531 66.1146972 48.8842531 66.1146972 59.8346525 62.0065754 59.8346525"></polygon>
                    <polygon id="Path_2400" points="27.6595029 0 57.0814006 0 42.2359773 26.7480142 59.7534483 26.7480142 25.5152557 70.8804019 33.5378242 40.1211035 17.7570465 40.1211035"></polygon>
                </g>
                <g id="protein-bars" transform="translate(253.756710, 0.000000)" fill-rule="nonzero">
                    <polygon id="Rectangle_894" transform="translate(37.297735, 37.696601) rotate(-45.000000) translate(-37.297735, -37.696601) " points="23.9841397 10.5429863 50.6113299 10.5429863 50.6113299 64.8502163 23.9841397 64.8502163"></polygon>
                    <polygon id="Path_2437" points="24.964387 6.08787993 23.8445201 0.583729393 23.8765718 0.439982388 23.8134397 0.433183543 23.8066409 0.401131846 23.7784742 0.429298489 19.4748054 0 18.5142258 4.22111138 12.6798456 5.54979992 11.3550422 11.3773812 5.52746086 12.6953859 4.20751369 18.5229671 0 19.4757767 0.428327225 23.7784742 0.401131846 23.8056696 0.432212279 23.8124684 0.438039861 23.8746293 0.580815602 23.8425776 6.08690866 24.9634157"></polygon>
                    <polygon id="Path_2438" points="74.5668165 51.2156982 74.5940118 51.1885028 74.5629314 51.181704 74.5571038 51.1195431 74.4143281 51.1515948 68.908235 50.0307567 50.035613 68.9033787 51.1564511 74.4075292 51.1234282 74.5512762 51.1865603 74.5580751 51.1933591 74.5901268 51.2215258 74.5619601 55.5251946 74.9912586 56.4857742 70.7701472 62.3201544 69.4414587 63.6449578 63.6138774 69.4725391 62.2958728 70.7924863 56.4682915 75 55.5154819"></polygon>
                </g>
            </g>
            <g id="Row-1" transform="translate(122.779813, 132.855689)" fill="#D80012">
                <g id="Shield" transform="translate(0.000000, -0.000000)">
                    <path d="M50.2755455,57.9109966 L42.3152711,57.9109966 C42.3152711,55.9493575 45.2719444,53.760282 49.5079476,53.760282 C53.7439508,53.760282 56.7006242,55.9493575 56.7006242,57.9109966 L50.2755455,57.9109966 Z M34.016685,70.3176529 C4.00929328,56.2279671 3.9382194,24.5148023 4.27937402,17.7684697 L34.016685,4.6596035 L63.7397811,17.7627838 C63.9132014,22.0670179 63.8250698,37.0181191 55.6657885,50.8007657 C53.8946274,49.9819946 51.7993695,49.4958493 49.5079476,49.4958493 C43.082869,49.4958493 38.0508383,53.191691 38.0508383,57.9109966 C38.0508383,58.2521512 38.0792679,58.5933058 38.136127,58.9344604 L38.136127,68.1399492 C36.8255247,68.9018612 35.4665921,69.6353436 34.016685,70.3176529 Z M62.3865345,57.9109966 L60.9650569,57.9109966 C60.9650569,56.1938516 60.2855906,54.6188545 59.1256649,53.2997233 C69.6303842,35.7643759 67.9416688,16.4123801 67.9132393,16.1280846 L67.7909922,14.8857132 L34.016685,0 L0.239534738,14.8857132 L0.117287666,16.1280846 C0.0774862937,16.545999 -3.57286813,58.1071605 33.1410548,74.6105151 L34.016685,75 L34.8894722,74.6105151 C36.0721415,74.0788825 37.2093236,73.5188204 38.3095472,72.9388575 C38.6762885,74.1186839 39.7423966,74.997157 41.0359412,74.997157 L59.4867202,74.997157 C61.0787751,74.997157 62.3865345,73.6893977 62.3865345,72.0973428 L62.3865345,64.1939274 L72.0810116,64.1939274 L72.0810116,57.9109966 L62.3865345,57.9109966 L62.3865345,57.9109966 Z" id="Fill-121"></path>
                    <polygon id="Fill-122" points="49.3032548 40.6229862 49.3032548 31.3521095 38.6507019 31.3521095 38.6507019 20.6995565 29.3798251 20.6995565 29.3798251 31.3521095 18.7301151 31.3521095 18.7301151 40.6229862 29.3798251 40.6229862 29.3798251 51.2755392 38.6507019 51.2755392 38.6507019 40.6229862"></polygon>
                </g>
            </g>
            <path d="M138.88796,20 L138.944866,18.7000369 L140.645728,11 C143.905185,11.0565201 149.46934,11.4754341 154.95446,13.4070927 C162.032951,15.8806797 166.041672,18.3941633 167.88796,20 L138.88796,20 Z M163.827514,77 L143.257561,77 C143.177882,77 143.126888,76.9362106 143.120513,76.8596634 L138.88796,30 L167.88796,30 L163.961375,76.9011265 C163.961375,76.9266422 163.904006,77 163.827514,77 Z M154.881691,7.14947383 C156.248462,6.35411924 158.906769,5.95644195 161.88796,6.00378449 L161.304888,11 C159.859747,10.4066402 158.333101,9.82590513 156.687333,9.27673173 C155.750029,8.96111483 154.81586,8.69284047 153.88796,8.44981545 C153.897365,7.92904757 154.245327,7.50296476 154.881691,7.14947383 Z M176.88796,4.17538343 C176.88796,2.9814346 169.33834,0.350325158 161.528604,1.73694826 C156.78071,2.57397588 152.791226,4.75024767 150.155597,2.66873372 C149.256161,1.95173271 148.472681,0.707246367 146.620532,0.205029799 C145.028499,-0.227697685 143.658975,0.141857903 143.273502,0.25240872 C139.418777,1.36107548 138.184011,6.14002937 138.083726,6.55380529 C137.297111,6.57907405 136.817621,6.61697718 136.817621,6.61697718 L134.203929,17.9342223 L134.122447,19.8167447 L131.88796,19.8167447 L131.88796,30.7170553 L134.56433,30.7170553 L138.763787,77.54954 C138.976894,80.0606228 141.067221,82 143.580627,82 L163.806966,82 C166.323506,82 168.43577,80.0385126 168.626939,77.5242712 L172.516138,30.7170553 L175.145499,30.7170553 L175.145499,19.8167447 L172.672834,19.8167447 C172.572548,18.8533733 172.459727,18.1047864 172.331236,17.9342223 C172.177674,17.7383894 171.967701,17.5330807 171.7828,17.3340892 L171.212426,14.0807366 L169.974526,6.99600856 C174.948062,7.70037519 176.88796,5.62517843 176.88796,4.17538343 L176.88796,4.17538343 Z" id="Fill-54" fill="#D80012"></path>
        </g>
        <g id="amino-acids" transform="translate(-65.222841, 176.212735)" fill="#D80012" fill-rule="nonzero">
            <path d="M66.9635641,15.7497475 C61.33847,14.406838 55.6894528,17.8769352 54.344368,23.5015095 C54.103556,24.5797414 54.035875,25.6894275 54.1438644,26.7889333 L41.7627664,30.1379702 C40.3238576,28.2727964 38.2919446,26.9540422 36.0024647,26.3994132 C34.1134775,25.9551026 32.1379291,26.0473334 30.2985546,26.6657071 L19.1006368,16.2583165 C19.8165175,15.2421416 20.3422869,14.1046257 20.6524512,12.9009253 C21.9933557,7.27769767 18.5240715,1.63158025 12.9017334,0.286950679 C10.2010273,-0.358755235 7.35442126,0.0951699697 4.98848126,1.54881291 C2.62254126,3.00245585 0.931191463,5.33666873 0.28671453,8.03766842 C-0.358678601,10.7382251 0.0953991059,13.5845614 1.54901524,15.950262 C3.00263138,18.3159625 5.33665963,20.0071541 8.03743227,20.651643 C10.1242148,21.1454064 12.3125887,20.9823726 14.3031701,20.1848456 L25.2024212,30.3144551 C24.3411297,31.4544726 23.7223867,32.758773 23.3843129,34.1469981 C22.3305867,38.5770174 24.2688535,43.1790806 28.1744695,45.5203566 L24.7387566,59.9472181 C20.0621761,60.1252369 16.0750878,63.3928314 14.9819584,67.9433439 C13.6398221,73.5667683 17.109606,79.213699 22.7326762,80.5573185 C25.4333823,81.2030244 28.2799883,80.7490992 30.6459283,79.2954563 C33.0118683,77.8418134 34.7032181,75.5076005 35.3476951,72.8066008 C36.3872519,68.4280939 34.5049212,63.8760771 30.6765875,61.5105197 L34.1404962,47.0042922 C38.7606399,46.7651406 42.6727622,43.514671 43.7542267,39.0165207 C43.9814253,37.9972259 44.0518542,36.949244 43.9630846,35.9087148 L56.4423459,32.5304378 C57.8783869,34.3182802 59.8667463,35.5794598 62.09613,36.1165284 C64.7968544,36.7625237 67.6435964,36.3087225 70.0096089,34.8550351 C72.3756213,33.4013476 74.0669219,31.0669574 74.7111489,28.3658106 C76.0541694,22.7427633 72.5860141,17.0952659 66.9635641,15.7497475 Z" id="Path_2515"></path>
        </g>
    </g>
</svg>